<svg width="154" height="84" viewBox="0 0 154 84" fill="none" xmlns="http://www.w3.org/2000/svg">
<g clip-path="url(#clip0_116_411)">
<path d="M142 50.2715L134.085 50.2539L130.653 43.8953V50.2715H123.822V43.1258L122.921 46.5689C121.569 48.9919 118.817 50.5276 116.059 50.7156C112.976 50.9267 109.955 50.332 107.737 48.0728V50.2715H86.2542L85.6857 47.8717L80.3194 47.8684L79.7542 50.2726H72.2627L79.2012 30.7572L86.9736 30.811L91.9841 45.1046L97.3813 36.5309H90.661V30.8693C90.7381 30.7363 91.1039 30.7044 91.2669 30.7044H112.805V41.6428C112.805 41.9847 112.955 43.0192 113.056 43.371C113.517 44.9738 115.812 45.1497 116.46 43.6425C116.552 43.4303 116.771 42.7048 116.771 42.5234V30.7055L134.231 30.8176C137.797 31.2288 140.399 33.1229 140.572 36.9124C140.692 39.5552 139.654 41.6329 136.988 42.2518C136.857 42.2826 136.788 42.1694 136.823 42.4123L142 50.1649V50.2748V50.2715ZM105.975 44.2251L105.863 35.3205L100.136 44.2251H105.975ZM130.653 39.6079H132.25C132.454 39.6079 133.113 39.277 133.3 39.1165C134.156 38.3833 134.074 36.7365 133.114 36.1076C133.018 36.045 132.409 35.7603 132.36 35.7603H130.653V39.6079ZM84.3813 43.1258C83.944 40.9678 83.0857 38.8637 83.0582 36.6397L81.5169 43.1258H84.3813Z" fill="#515662"/>
<path d="M12 48.8423L14.3158 43.3457C15.9353 44.2966 18.1453 45.8346 20.1327 45.3596C20.7618 45.209 21.3545 44.666 20.9711 44.0163C20.4698 43.1676 17.6451 42.8609 16.5985 42.4398C11.8931 40.55 12.1939 34.4146 15.8658 31.6465C19.4574 28.9388 24.7686 29.7557 28.5243 31.6971L26.2681 37.0761C25.0055 36.0604 22.8847 35.1688 21.252 35.5909C20.6384 35.7492 20.2308 36.366 20.7034 36.9145C21.3732 37.694 24.1914 38.0326 25.2512 38.4217C30.0568 40.184 29.7637 46.4359 26.2141 49.337C22.2876 52.5449 16.1027 51.3411 12.0011 49.0611V48.8412L12 48.8423Z" fill="#515662"/>
<path d="M58.2712 30.5934V43.8954H64.1102V50.2715H52.2119V30.5934H58.2712Z" fill="#515662"/>
<path d="M30.5096 44.5549C33.1052 45.9566 35.2337 48.2399 38.4462 47.5836C40.7399 47.1153 42.4806 45.3223 42.9246 43.0378C43.2265 41.4856 42.5996 38.1227 45.258 39.0154L50.8843 42.4145C51.0099 42.4904 51.0926 42.5761 51.1003 42.7311C51.1157 43.006 50.7819 44.168 50.6717 44.5022C49.6626 47.5814 47.0692 50.1725 43.947 51.0938C38.4881 52.7043 32.6799 49.6767 30.5074 44.5527L30.5096 44.5549Z" fill="#515662"/>
<path d="M47.208 32.1786C48.4187 33.2317 49.3948 34.6554 50.1186 36.0889C48.2744 35.448 46.7673 33.7121 44.7666 33.4604C41.651 33.0679 38.5057 35.3403 38.0066 38.4591C37.9152 39.0329 38.1013 39.7167 37.7014 40.2708L32.9939 40.2609L29.6359 38.2744C30.0931 35.492 31.4879 32.9437 33.7772 31.2705C37.8909 28.2649 43.4556 28.9146 47.208 32.1775V32.1786ZM30.4534 38.2887V38.3986C30.525 38.3623 30.525 38.325 30.4534 38.2887ZM32.8231 39.8267H32.9862L33.1514 39.6618L32.8242 39.7189V39.8267H32.8231ZM33.0975 40.0476V40.1576C33.1691 40.1213 33.1691 40.0839 33.0975 40.0476Z" fill="#515662"/>
<path d="M80.7458 59.6158C80.8504 60.5646 80.3304 61.3473 79.9856 62.1773L81.7373 63.9032C80.5243 64.0604 80.0087 63.812 79.2431 62.9259C78.614 63.2964 78.0565 63.6691 77.3316 63.8494C73.5098 64.8025 71.4739 60.9966 75.2351 59.2311C72.4786 56.0177 78.2119 53.7465 79.4149 57.1445C78.2042 57.9745 78.3529 56.7455 77.5938 56.4387C76.4403 55.9737 75.3475 56.8422 75.7275 58.0812C76.6133 59.4256 78.0565 60.3062 79.1472 61.4825L79.8027 59.7203L80.7447 59.6147L80.7458 59.6158ZM74.9453 60.4238C74.0431 61.4451 74.5113 62.882 75.8697 63.1073C76.6541 63.2381 77.9166 62.9413 78.4245 62.2938L75.8961 59.8852L75.6009 59.9159C75.4378 60.0885 75.0809 60.2699 74.9453 60.4238Z" fill="#515662"/>
<path d="M107.958 3L108.165 3.94763C108.3 6.73225 108.777 8.81219 111.809 9.43552L115.118 9.81479C113.649 9.81479 111.738 9.86096 110.416 10.5656C108.087 11.8068 108.333 14.8344 108.122 17.0726C107.982 14.8794 108.094 11.6441 105.719 10.5645C105.232 10.3436 103.658 9.92582 103.164 9.92582H101.016L104.653 9.43222C105.991 9.06834 106.967 8.39005 107.459 7.06535C107.621 6.62891 107.957 5.23165 107.957 4.81391V3H107.958Z" fill="#515662"/>
<path d="M121.508 62.3642V58.1318L122.39 57.9669V63.9033L121.556 63.801L117.985 59.5587L117.76 59.5631C117.735 59.6587 117.873 59.7478 117.873 59.7808V63.4086C117.873 63.4976 117.839 63.8109 117.773 63.8527L116.992 63.9033V57.9669L117.714 58.0713L121.508 62.3642Z" fill="#515662"/>
<path d="M25.6059 57.9668C26.2504 58.0284 27.232 58.2691 27.5559 58.8793C28.1443 59.9885 27.3301 61.0801 26.213 61.3187L28.3051 63.9021L27.2023 63.8494C26.766 63.4569 25.6026 61.5704 25.1631 61.488C24.9097 61.4407 24.6023 61.51 24.339 61.4847V63.9032H23.4576V57.9668C24.1528 58.0141 24.9207 57.902 25.6059 57.9668ZM24.339 60.8251H25.9365C26.1436 60.8251 26.6074 60.3931 26.7076 60.1644C27.3499 58.7078 25.3327 58.5143 24.339 58.6264V60.8251Z" fill="#515662"/>
<path d="M35.671 57.9822L38.2192 63.9033L37.3368 63.8505L36.7319 62.4752L33.775 62.384L33.0457 63.8549L32.0497 63.9044L34.6376 58.0779L35.6699 57.9833L35.671 57.9822ZM36.3475 61.7046L35.2447 58.9562C35.0111 59.1091 34.8998 59.5048 34.7864 59.7621C34.5109 60.392 34.2201 61.0571 34.0339 61.7046H36.3475Z" fill="#515662"/>
<path d="M56.2881 57.9669L56.1074 58.721L53.2034 58.6265V60.6053H55.7373V61.2649H53.2034V63.2437H56.2881V63.9033H52.2119V57.9669H56.2881Z" fill="#515662"/>
<path d="M93.1949 57.9669L93.0142 58.721L90 58.7914V60.6053H92.5339V61.2649H90V63.2437H93.1949V63.9033H89.1187V57.9669H93.1949Z" fill="#515662"/>
<path d="M112.034 57.9669L112.038 58.5506C112.016 58.6232 111.789 58.7364 111.758 58.7364H108.949V60.6053H111.483V61.2649H108.949V63.2437H112.144L112.034 63.9033H108.123L107.982 63.7384C107.979 63.6933 108.068 63.6559 108.068 63.6284V57.9669H112.034Z" fill="#515662"/>
<path d="M100.357 62.9128L102.443 58.1548L103.441 57.968L100.725 63.8857L100.076 63.911L97.2712 57.968L98.0765 57.9877L98.3145 58.19L100.357 62.9128Z" fill="#515662"/>
<path d="M44.5011 62.8039C44.7832 62.8468 44.6719 62.7798 44.7314 62.65C45.3825 61.2022 45.9256 59.6928 46.6065 58.2549C46.8521 57.8943 47.3171 57.9625 47.6949 57.968L45.1071 63.7944L44.1166 63.7911L41.5266 57.9669L42.5666 58.1922L44.5022 62.8028L44.5011 62.8039Z" fill="#515662"/>
<path d="M137.625 60.0248C138.215 60.7405 140.574 60.3689 140.577 62.0894C140.58 64.2748 137.637 64.4255 136.319 63.2448L136.763 62.6918C137.679 63.292 139.397 63.7713 139.694 62.307L139.638 61.9179C139.371 61.1209 136.905 61.3055 136.625 60.0875C136.113 57.8547 139.126 57.3875 140.453 58.5704L139.964 59.0673C139.313 58.7001 138.563 58.3956 137.844 58.8232C137.462 59.0497 137.324 59.6598 137.625 60.0259V60.0248Z" fill="#515662"/>
<path d="M132.195 57.9669V58.7364H130.102V63.9033H129.11V58.7364H127.017V57.9669H132.195Z" fill="#515662"/>
<path d="M18.7203 57.9669V58.7364H16.6271V63.9033H15.7457V58.7364H13.6525V57.9669H18.7203Z" fill="#515662"/>
<path d="M62.1271 57.9669V63.0788L62.2924 63.2437H64.9916V63.9033H61.2458V57.9669H62.1271Z" fill="#515662"/>
<path d="M119.194 19.821L117.647 20.0903C116.261 20.4674 115.998 21.6151 115.944 22.8991C115.649 22.0977 115.787 21.2963 115.122 20.64C114.593 20.1189 114.079 20.164 113.411 20.0386C113.25 20.0089 113.069 20.0375 113.024 19.821C115.213 19.9287 115.893 18.4897 115.834 16.5208C115.91 18.7942 116.762 20.0232 119.193 19.821H119.194Z" fill="#515662"/>
<path d="M34.089 40.8172C34.1606 40.8535 34.1606 40.8909 34.089 40.9271V40.8172Z" fill="#515662"/>
<path d="M33.6483 40.5973C33.7199 40.6336 33.7199 40.6709 33.6483 40.7072V40.5973Z" fill="#515662"/>
<path d="M37.5042 41.8066C37.5758 41.8429 37.5758 41.8802 37.5042 41.9165V41.8066Z" fill="#515662"/>
</g>
<defs>
<clipPath id="clip0_116_411">
<rect width="130" height="61" fill="white" transform="translate(12 3)"/>
</clipPath>
</defs>
</svg>
