<svg width="234" height="84" viewBox="0 0 234 84" fill="none" xmlns="http://www.w3.org/2000/svg">
<path d="M35.4856 29.4554C35.4732 29.5461 35.469 29.6861 35.4773 29.8675C35.4815 30.0446 35.4856 30.2342 35.4856 30.4237V31.2396C35.4856 31.2808 35.4649 31.3014 35.4235 31.3014C35.3904 31.3014 35.3697 31.2808 35.3697 31.2313C35.3408 31.0377 35.2663 30.9141 35.1463 30.8605C35.0304 30.8028 34.8938 30.774 34.7324 30.774H31.1735C30.9665 30.7822 30.8631 30.8811 30.8631 31.0748V37.5027C30.8631 37.614 30.8838 37.7211 30.9334 37.8283C30.9872 37.9313 31.0617 38.0054 31.1652 38.0508C31.1942 38.0755 31.2273 38.092 31.2686 38.1043C31.3142 38.1126 31.3307 38.1373 31.31 38.1826C31.2976 38.2238 31.2728 38.2444 31.2314 38.2444H29.034C29.005 38.2403 28.9843 38.2197 28.9719 38.1826C28.9595 38.1538 28.9677 38.1291 28.9967 38.1126C29.0257 38.0961 29.0505 38.0837 29.0753 38.0796C29.2326 38.0013 29.3195 37.9189 29.3443 37.8406C29.3733 37.7541 29.3857 37.6346 29.3857 37.478V37.0124C29.3898 36.761 29.394 36.4438 29.394 36.0688C29.394 35.6938 29.3898 35.2859 29.3857 34.8491V32.3233C29.3857 31.9524 29.3816 31.6434 29.3774 31.4044C29.3692 31.1654 29.3692 31.0253 29.3692 30.9924C29.3609 30.8523 29.2864 30.774 29.1374 30.7698C29.1043 30.7698 28.9595 30.7698 28.7153 30.7616C28.467 30.7575 28.1401 30.7534 27.7428 30.7534H20.6745C20.5173 30.7492 20.3931 30.7781 20.3021 30.8481C20.2152 30.9141 20.1573 31.0253 20.12 31.1819C20.1076 31.1943 20.0993 31.2107 20.0952 31.2355C20.0952 31.2519 20.0828 31.2602 20.0621 31.2602C20.029 31.2602 20.0083 31.2313 20.0083 31.1654C20.0083 30.9017 20.0041 30.638 20 30.366V29.5419C20 29.406 20.0124 29.3235 20.0414 29.2947C20.0745 29.2617 20.1573 29.2411 20.2814 29.2411H35.2745C35.4111 29.237 35.4815 29.3071 35.4815 29.4472L35.4856 29.4554Z" fill="#515662"/>
<path d="M52.3948 38.0795C52.4693 38.1207 52.4942 38.1578 52.4735 38.1908C52.4569 38.2237 52.4155 38.2443 52.3617 38.2443H50.2512C50.185 38.2443 50.1477 38.2237 50.1312 38.1825C50.1146 38.1372 50.1312 38.1042 50.1933 38.0795C50.2388 38.063 50.3091 38.0342 50.4085 37.993C50.5036 37.9477 50.5533 37.8364 50.5533 37.6675C50.5533 37.2101 50.3464 36.8063 49.9326 36.456C49.5229 36.1017 48.96 35.8009 48.2358 35.5454C47.5158 35.294 46.6798 35.0963 45.728 34.9438C44.7803 34.7872 43.7665 34.6925 42.6864 34.643C41.6062 34.5977 40.5055 34.6059 39.384 34.6595C39.1771 34.6883 39.0777 34.8078 39.0902 35.0221V37.651C39.0902 37.7705 39.1026 37.8611 39.1233 37.9188C39.1522 37.9724 39.235 38.0177 39.3716 38.063C39.4336 38.0795 39.4626 38.1166 39.4585 38.166C39.4502 38.2196 39.4129 38.2443 39.3384 38.2443H37.2445C37.1782 38.2443 37.141 38.2237 37.1244 38.1825C37.1079 38.1372 37.1286 38.096 37.1948 38.063C37.3024 38.0342 37.3852 38.0012 37.4431 37.96C37.5052 37.9147 37.5383 37.8117 37.5383 37.651V29.8138C37.5383 29.7231 37.5176 29.6407 37.4762 29.5748C37.4348 29.5047 37.3521 29.4594 37.2279 29.4306C37.141 29.4141 37.1079 29.377 37.1244 29.3193C37.141 29.2616 37.1824 29.2328 37.2445 29.2328H39.4336C39.4792 29.2328 39.504 29.2658 39.504 29.3276C39.5081 29.3935 39.4709 29.4265 39.384 29.4306C39.2722 29.4553 39.1977 29.5047 39.1522 29.5872C39.1108 29.6696 39.0902 29.7643 39.0902 29.8797C39.0777 30.0157 39.0736 30.2217 39.0736 30.4895C39.0736 30.7574 39.0736 31.0458 39.0819 31.3548C39.086 31.6598 39.0902 31.9358 39.0902 32.1872V32.7187C39.0902 32.8877 39.1688 32.9824 39.3219 33.003C41.1096 33.003 42.707 33.0607 44.1141 33.1761C45.5294 33.2915 46.7585 33.4934 47.8055 33.7777C48.8566 34.0661 49.7215 34.4617 50.4002 34.9644C50.4788 35.0303 50.5285 35.0345 50.545 34.9809C50.5616 34.9232 50.5657 34.8696 50.5533 34.8161C50.5533 34.7419 50.5492 34.5812 50.545 34.3257V30.3165C50.545 30.0569 50.5367 29.8879 50.5285 29.8014C50.5285 29.6778 50.5036 29.5913 50.4581 29.5418C50.4126 29.4883 50.334 29.4429 50.2264 29.3976C50.1684 29.377 50.1436 29.344 50.156 29.3028C50.1684 29.2575 50.2015 29.2328 50.2595 29.2328H52.3617C52.4362 29.2328 52.4735 29.2575 52.4735 29.3028C52.4735 29.3482 52.4528 29.3853 52.4114 29.4059C52.2417 29.4718 52.1424 29.5336 52.1093 29.5954C52.0762 29.6531 52.0596 29.7437 52.0679 29.8715V32.9701C52.0679 33.4975 52.0638 34.0208 52.0596 34.54V37.0535C52.0596 37.3255 52.0596 37.4656 52.0679 37.482C52.0679 37.5974 52.0969 37.7128 52.1548 37.8323C52.2169 37.9518 52.2955 38.0342 52.3948 38.0795Z" fill="#515662"/>
<path d="M70.4709 36.3735V38.1165C70.4709 38.2442 70.4047 38.306 70.2805 38.306H54.5963C54.5259 38.306 54.497 38.2895 54.5011 38.2525C54.5053 38.2195 54.5342 38.1907 54.588 38.1742C54.7246 38.1412 54.8156 38.0794 54.8653 37.9929C54.9191 37.9022 54.9439 37.8033 54.9439 37.6921V29.9661C54.9439 29.8631 54.9274 29.7766 54.9025 29.6983C54.8736 29.62 54.7949 29.55 54.6708 29.4923C54.6004 29.4717 54.5673 29.4387 54.5673 29.3975C54.5715 29.3604 54.6129 29.3357 54.6873 29.3357H56.7813C56.802 29.3357 56.8186 29.3439 56.8227 29.3522H66.0305C66.8085 29.3522 67.5037 29.3522 68.1245 29.3439C68.7452 29.3398 69.2418 29.3357 69.6143 29.3357H70.2598C70.3923 29.3357 70.4585 29.4057 70.4585 29.5417V31.2764C70.4585 31.3094 70.4419 31.33 70.4047 31.33C70.3674 31.33 70.3509 31.3135 70.3509 31.2764C70.3178 31.0787 70.2392 30.9509 70.1191 30.8974C70.0033 30.8438 69.8667 30.8191 69.7053 30.8191H66.9285V30.8108H56.7193C56.6448 30.8108 56.5744 30.8438 56.5123 30.9056C56.4544 30.9633 56.4254 31.0292 56.4254 31.1034V33.0936C56.4254 33.1801 56.4544 33.2543 56.5123 33.3079C56.5744 33.3655 56.6448 33.3944 56.7193 33.3944H62.306V33.3779H65.0911C65.2483 33.3779 65.3849 33.3532 65.5049 33.2996C65.6249 33.246 65.6994 33.1266 65.7284 32.9288C65.7284 32.8917 65.7449 32.867 65.7822 32.867C65.8194 32.867 65.836 32.8876 65.836 32.9288V33.6004C65.8277 33.6663 65.8277 33.7405 65.8277 33.8312V34.4245C65.8277 34.5152 65.8277 34.5935 65.836 34.6553V35.3351C65.836 35.3681 65.8194 35.3887 65.7822 35.3887C65.7449 35.3887 65.7284 35.3681 65.7284 35.3269C65.6994 35.1332 65.6249 35.0096 65.5049 34.9561C65.3849 34.9025 65.2442 34.8778 65.0911 34.8778H62.306V34.8613H56.7193C56.6448 34.8613 56.5744 34.8943 56.5123 34.9561C56.4544 35.0137 56.4254 35.0838 56.4254 35.1621V36.526C56.4254 36.6125 56.4544 36.6867 56.5123 36.7402C56.5744 36.7938 56.6448 36.8185 56.7193 36.8185H69.7219C69.8791 36.8144 70.0157 36.7856 70.1357 36.732C70.2598 36.6784 70.3343 36.5589 70.3592 36.3694C70.3592 36.3241 70.3757 36.2993 70.413 36.2993C70.4502 36.2993 70.4668 36.32 70.4668 36.3612L70.4709 36.3735Z" fill="#515662"/>
<path d="M95.9138 35.5045C96.0793 35.7682 96.1827 36.0443 96.2159 36.3286C96.2531 36.617 96.2531 36.9055 96.2159 37.1939C96.1869 37.4576 96.0379 37.6966 95.7689 37.915C95.5041 38.1293 95.1937 38.2323 94.8378 38.2323C94.7178 38.2199 94.4612 38.2158 94.0805 38.2158H88.6924C87.9847 38.2158 87.2978 38.2199 86.6315 38.224C85.9652 38.2323 85.3569 38.2323 84.8024 38.2323H81.3262C81.26 38.2405 81.2227 38.2199 81.2062 38.1787C81.1937 38.1416 81.2269 38.1045 81.3013 38.0757C81.4421 38.018 81.5331 37.9397 81.5703 37.8367C81.6076 37.7337 81.6324 37.6183 81.6324 37.4865V29.8306C81.6159 29.707 81.5786 29.5957 81.529 29.5051C81.4752 29.4103 81.3965 29.3361 81.2889 29.2908C81.2724 29.2784 81.2517 29.2702 81.2269 29.2661C81.2103 29.2537 81.202 29.2372 81.2103 29.2125C81.2227 29.1754 81.2517 29.1507 81.3055 29.1507H94.6847C94.9123 29.1507 95.1275 29.2001 95.3302 29.2949C95.5289 29.3856 95.7027 29.5339 95.8475 29.7317C95.9344 29.847 95.9841 29.9707 96.0048 30.1108C96.0214 30.2426 96.0338 30.3745 96.0462 30.5063C96.0627 30.7577 96.0338 31.0008 95.9593 31.2274C95.8848 31.4582 95.7689 31.6683 95.6158 31.862C95.5041 32.0103 95.3841 32.1545 95.2433 32.2905C95.1068 32.4224 94.9619 32.5419 94.813 32.6531C94.5936 32.8262 94.3743 32.991 94.1508 33.1517C93.9315 33.3083 93.6956 33.4443 93.4432 33.5637C93.4018 33.5885 93.3273 33.6256 93.2197 33.675C93.108 33.7203 93.0376 33.7492 93.0045 33.7615C93.2859 33.8439 93.5756 33.947 93.8653 34.0788C94.1632 34.2065 94.424 34.3302 94.6516 34.4579C94.8792 34.5774 95.0323 34.6639 95.1068 34.7175C95.2227 34.7999 95.3344 34.8864 95.442 34.9853C95.5496 35.076 95.6489 35.1749 95.7358 35.2779C95.8103 35.3479 95.8682 35.4221 95.9179 35.5086L95.9138 35.5045ZM83.1015 30.9472C83.1015 30.9926 83.0974 31.0997 83.0932 31.2645V32.7767C83.0974 32.8344 83.1305 32.888 83.1967 32.9415C83.2588 32.9992 83.325 33.0404 83.3953 33.061C83.4698 33.0858 83.5526 33.0981 83.6354 33.1023C83.714 33.1146 83.925 33.1311 84.2644 33.1558C84.6079 33.1723 85.0341 33.1888 85.539 33.2094C86.048 33.2259 86.6025 33.2382 87.1943 33.2424C87.7861 33.2506 88.3737 33.2424 88.9614 33.2176C89.5532 33.197 90.0911 33.1558 90.5836 33.0981C91.0761 33.0363 91.4816 32.9415 91.8003 32.8221C91.8872 32.8014 92.0279 32.752 92.2224 32.6778C92.421 32.6037 92.6445 32.5048 92.8845 32.377C93.1287 32.2534 93.3728 32.101 93.6087 31.9238C93.8487 31.7466 94.0515 31.5406 94.2129 31.3057C94.2667 31.2439 94.3122 31.1615 94.3577 31.0585C94.4033 30.9513 94.4033 30.8483 94.366 30.7577C94.3246 30.6629 94.2667 30.6094 94.1922 30.5929C94.1177 30.5764 94.0432 30.564 93.9687 30.5517H93.9274C93.7784 30.5475 93.6294 30.5475 93.4804 30.5517H91.6968C91.254 30.5475 90.8112 30.5475 90.3684 30.5517C89.4538 30.564 88.5351 30.5681 87.6081 30.5599C86.6894 30.5475 85.7666 30.5558 84.8396 30.5764C84.6079 30.5764 84.3803 30.5764 84.1485 30.5681C83.925 30.5558 83.6974 30.5681 83.4657 30.5929C83.3622 30.6011 83.2712 30.6382 83.1967 30.7124C83.1263 30.7824 83.0932 30.8607 83.0932 30.9514L83.1015 30.9472ZM94.3867 36.8437C94.4819 36.8148 94.5357 36.7654 94.544 36.6871C94.5564 36.6088 94.5522 36.514 94.5357 36.4028C94.5233 36.308 94.4446 36.1885 94.2957 36.0525C94.1467 35.9166 93.977 35.7847 93.7867 35.657C93.5963 35.5333 93.4349 35.4427 93.2942 35.3891C92.7604 35.1831 92.152 35.0183 91.4733 34.8988C90.7947 34.7752 90.0953 34.6804 89.3793 34.6145C88.6593 34.5444 87.9599 34.5032 87.2854 34.4867C86.6067 34.4661 85.9942 34.4579 85.4479 34.462C84.9017 34.4703 84.4589 34.4785 84.1278 34.4867C83.8009 34.4991 83.6312 34.4991 83.6271 34.4867C83.4409 34.4826 83.3084 34.5156 83.2215 34.5897C83.1388 34.6598 83.0974 34.7793 83.0932 34.9524C83.0808 35.1089 83.0725 35.3356 83.0684 35.6405V36.5593C83.0601 36.6459 83.0891 36.7242 83.1553 36.7901C83.2257 36.856 83.3002 36.8849 83.3871 36.8849H90.7409C91.4071 36.8808 92.0072 36.8725 92.541 36.8684C93.079 36.8643 93.5135 36.8601 93.8446 36.8601C94.1715 36.856 94.3536 36.8478 94.3867 36.8437Z" fill="#515662"/>
<path d="M105.709 28.8949C106.764 28.8949 107.758 29.0226 108.685 29.274C109.616 29.5212 110.431 29.8632 111.135 30.2959C111.834 30.7244 112.384 31.2271 112.782 31.7999C113.183 32.3726 113.386 32.9907 113.386 33.6541C113.386 34.3175 113.183 34.915 112.782 35.4918C112.384 36.0646 111.834 36.5673 111.135 37.0041C110.431 37.4408 109.616 37.7828 108.685 38.0259C107.758 38.2649 106.764 38.3885 105.709 38.3885C104.654 38.3885 103.661 38.269 102.734 38.0259C101.807 37.7828 100.992 37.4408 100.284 37.0041C99.5803 36.5714 99.0341 36.0646 98.6368 35.4918C98.2395 34.915 98.0409 34.301 98.0409 33.6541C98.0409 33.0072 98.2395 32.3726 98.6368 31.7999C99.0341 31.2271 99.5803 30.7285 100.284 30.2959C100.992 29.8632 101.807 29.5212 102.734 29.274C103.657 29.0226 104.65 28.8949 105.709 28.8949ZM105.709 36.9917C106.553 36.9917 107.348 36.9052 108.089 36.7321C108.829 36.559 109.479 36.3242 110.038 36.0192C110.601 35.7102 111.039 35.3559 111.358 34.9562C111.673 34.5524 111.834 34.1156 111.834 33.65C111.834 33.1843 111.673 32.7517 111.358 32.3438C111.039 31.94 110.601 31.5815 110.038 31.2724C109.479 30.9634 108.829 30.7244 108.089 30.5513C107.348 30.3742 106.553 30.2835 105.709 30.2835C104.865 30.2835 104.07 30.3742 103.33 30.5513C102.589 30.7244 101.935 30.9634 101.372 31.2724C100.814 31.5815 100.375 31.94 100.06 32.3438C99.7417 32.7517 99.5845 33.1843 99.5845 33.65C99.5845 34.1156 99.7417 34.5482 100.06 34.9562C100.375 35.3559 100.814 35.7102 101.372 36.0192C101.935 36.3242 102.589 36.559 103.33 36.7321C104.07 36.9052 104.865 36.9917 105.709 36.9917Z" fill="#515662"/>
<path d="M121.926 29.2495C123.954 29.2495 125.663 29.4432 127.05 29.8264C128.44 30.2096 129.495 30.7412 130.216 31.4128C130.931 32.0886 131.292 32.8632 131.292 33.7327V34.0087C131.292 34.6598 131.06 35.249 130.592 35.7682C130.133 36.2915 129.491 36.7365 128.668 37.1073C127.853 37.4741 126.905 37.7584 125.833 37.9562C124.757 38.1498 123.603 38.2487 122.378 38.2487H115.359C115.293 38.2528 115.256 38.2281 115.239 38.1704C115.222 38.1127 115.251 38.0633 115.334 38.0138C115.475 37.9232 115.566 37.7996 115.603 37.643C115.64 37.4864 115.657 37.3134 115.657 37.1115V36.7612C115.657 36.5264 115.657 36.2173 115.665 35.8259C115.669 35.4385 115.673 35.01 115.673 34.5361V33.1187C115.673 32.6448 115.669 32.1998 115.665 31.7878C115.657 31.3757 115.657 31.0378 115.657 30.7659V30.2755C115.649 30.086 115.62 29.9212 115.562 29.777C115.508 29.6286 115.425 29.5133 115.313 29.435C115.301 29.4308 115.284 29.4226 115.26 29.4185C115.243 29.4061 115.235 29.3814 115.243 29.3402C115.256 29.2784 115.284 29.2454 115.338 29.2454H121.935L121.926 29.2495ZM129.615 34.0046V33.7285C129.615 33.3618 129.483 33.0239 129.218 32.7149C128.953 32.4017 128.581 32.1215 128.105 31.8825C127.625 31.6394 127.075 31.4334 126.441 31.2645C125.812 31.0996 125.13 30.9719 124.389 30.8854C123.652 30.7989 122.895 30.7577 122.113 30.7577C121.666 30.7577 121.252 30.7576 120.871 30.7494C120.495 30.737 120.139 30.7329 119.795 30.7329C119.452 30.7329 119.1 30.737 118.728 30.7412C118.359 30.7494 117.954 30.7576 117.511 30.7741C117.399 30.7741 117.308 30.8153 117.234 30.8936C117.159 30.9678 117.122 31.0626 117.122 31.1697V36.1926C117.122 36.2956 117.159 36.3863 117.234 36.4604C117.308 36.5346 117.395 36.5758 117.494 36.5799C118.049 36.6211 118.591 36.6541 119.108 36.6747C119.63 36.6912 120.164 36.7077 120.702 36.7159C121.24 36.7241 121.827 36.7241 122.46 36.7241C123.437 36.7241 124.356 36.6706 125.221 36.5593C126.085 36.4439 126.851 36.275 127.505 36.0525C128.163 35.83 128.68 35.5498 129.057 35.2119C129.429 34.8699 129.615 34.4661 129.615 34.0005V34.0046Z" fill="#515662"/>
<path d="M148.408 29.5586C148.462 29.5586 148.495 29.5833 148.512 29.6369C148.533 29.6904 148.499 29.7275 148.408 29.7564C148.272 29.8099 148.073 29.9418 147.812 30.1602C147.56 30.3744 147.279 30.634 146.968 30.9431C146.658 31.248 146.339 31.5694 146.012 31.9114C145.685 32.2534 145.375 32.583 145.089 32.8921C144.808 33.2011 144.568 33.4648 144.374 33.6832C144.183 33.9016 144.059 34.0334 144.001 34.087C143.873 34.2312 143.786 34.3878 143.732 34.5609C143.687 34.7298 143.662 34.9029 143.662 35.0842C143.662 35.1995 143.662 35.3808 143.67 35.6239C143.674 35.8629 143.674 36.1225 143.67 36.3986C143.662 36.6706 143.658 36.9137 143.653 37.1362V37.6018C143.637 37.7295 143.666 37.8408 143.74 37.9438C143.815 38.0468 143.914 38.121 144.034 38.1663C144.071 38.1787 144.096 38.2034 144.096 38.2446C144.096 38.2775 144.055 38.2982 143.976 38.2982H141.874C141.828 38.3105 141.804 38.294 141.804 38.2569C141.804 38.2199 141.824 38.1869 141.874 38.1704C141.982 38.1251 142.064 38.055 142.114 37.9644C142.172 37.8696 142.201 37.7666 142.201 37.6554C142.201 37.5688 142.201 37.4164 142.209 37.1897C142.213 36.9672 142.217 36.7076 142.217 36.4151C142.222 36.1225 142.226 35.8382 142.226 35.5663V34.4578C142.217 34.293 142.209 34.1488 142.193 34.0293C142.176 33.9057 142.126 33.7821 142.048 33.6585C141.973 33.5348 141.833 33.3783 141.634 33.1929C140.93 32.7066 140.177 32.274 139.374 31.8949C138.576 31.5158 137.669 31.2356 136.66 31.0461C135.654 30.8565 134.491 30.7947 133.175 30.8483C133.014 30.8565 132.91 30.9595 132.865 31.1656C132.857 31.2191 132.832 31.248 132.778 31.2603C132.732 31.2686 132.708 31.2356 132.708 31.1656V29.8676C132.699 29.7934 132.72 29.7275 132.77 29.6616C132.815 29.5915 132.869 29.5586 132.935 29.5586H133.589C133.8 29.5545 134.015 29.5545 134.226 29.5586C134.797 29.5586 135.439 29.6121 136.159 29.7152C136.883 29.8182 137.636 29.9871 138.418 30.2137C139.205 30.4362 139.983 30.7453 140.757 31.1326C141.535 31.5158 142.259 31.9855 142.929 32.5418C143.037 32.6778 143.14 32.7437 143.231 32.7396C143.322 32.7355 143.422 32.6819 143.525 32.583C143.546 32.5542 143.624 32.4759 143.757 32.3523C143.889 32.2204 144.051 32.0597 144.249 31.8702C144.444 31.6806 144.647 31.487 144.854 31.2851C145.06 31.079 145.259 30.8854 145.449 30.6999C145.64 30.5104 145.793 30.3621 145.917 30.2467C146.037 30.1272 146.099 30.0571 146.107 30.0407C146.211 29.88 146.161 29.7811 145.963 29.7399C145.892 29.7275 145.859 29.6987 145.859 29.6451C145.863 29.5874 145.905 29.5586 145.979 29.5586H148.421H148.408Z" fill="#515662"/>
<path d="M174.658 36.3735V38.1165C174.658 38.2442 174.591 38.306 174.467 38.306H158.783C158.713 38.306 158.684 38.2895 158.688 38.2525C158.692 38.2195 158.721 38.1907 158.775 38.1742C158.911 38.1412 159.002 38.0794 159.052 37.9929C159.106 37.9022 159.131 37.8033 159.131 37.6921V29.9661C159.131 29.8631 159.114 29.7766 159.089 29.6983C159.06 29.62 158.982 29.55 158.858 29.4923C158.787 29.4717 158.754 29.4387 158.754 29.3975C158.758 29.3604 158.8 29.3357 158.874 29.3357H160.968C160.989 29.3357 161.005 29.3439 161.009 29.3522H170.217C170.995 29.3522 171.69 29.3522 172.311 29.3439C172.932 29.3398 173.429 29.3357 173.801 29.3357H174.447C174.579 29.3357 174.645 29.4057 174.645 29.5417V31.2764C174.645 31.3094 174.629 31.33 174.591 31.33C174.554 31.33 174.538 31.3135 174.538 31.2764C174.505 31.0787 174.426 30.9509 174.306 30.8974C174.19 30.8438 174.053 30.8191 173.892 30.8191H171.115V30.8108H160.906C160.832 30.8108 160.761 30.8438 160.699 30.9056C160.641 30.9633 160.612 31.0292 160.612 31.1034V33.0936C160.612 33.1801 160.641 33.2543 160.699 33.3079C160.761 33.3655 160.832 33.3944 160.906 33.3944H166.493V33.3779H169.278C169.435 33.3779 169.572 33.3532 169.692 33.2996C169.812 33.246 169.886 33.1266 169.915 32.9288C169.915 32.8917 169.932 32.867 169.969 32.867C170.006 32.867 170.023 32.8876 170.023 32.9288V33.6004C170.014 33.6663 170.014 33.7405 170.014 33.8312V34.4245C170.014 34.5152 170.014 34.5935 170.023 34.6553V35.3351C170.023 35.3681 170.006 35.3887 169.969 35.3887C169.932 35.3887 169.915 35.3681 169.915 35.3269C169.886 35.1332 169.812 35.0096 169.692 34.9561C169.572 34.9025 169.431 34.8778 169.278 34.8778H166.493V34.8613H160.906C160.832 34.8613 160.761 34.8943 160.699 34.9561C160.641 35.0137 160.612 35.0838 160.612 35.1621V36.526C160.612 36.6125 160.641 36.6867 160.699 36.7402C160.761 36.7938 160.832 36.8185 160.906 36.8185H173.909C174.066 36.8144 174.202 36.7856 174.322 36.732C174.447 36.6784 174.521 36.5589 174.546 36.3694C174.546 36.3241 174.562 36.2993 174.6 36.2993C174.637 36.2993 174.654 36.32 174.654 36.3612L174.658 36.3735Z" fill="#515662"/>
<path d="M183.36 29.2495C185.388 29.2495 187.097 29.4432 188.483 29.8264C189.874 30.2096 190.929 30.7412 191.649 31.4128C192.365 32.0886 192.725 32.8632 192.725 33.7327V34.0087C192.725 34.6598 192.493 35.249 192.025 35.7682C191.566 36.2915 190.925 36.7365 190.101 37.1073C189.286 37.4741 188.338 37.7584 187.266 37.9562C186.19 38.1498 185.036 38.2487 183.811 38.2487H176.792C176.726 38.2528 176.689 38.2281 176.672 38.1704C176.656 38.1127 176.685 38.0633 176.767 38.0138C176.908 37.9232 176.999 37.7996 177.036 37.643C177.074 37.4864 177.09 37.3134 177.09 37.1115V36.7612C177.09 36.5264 177.09 36.2173 177.099 35.8259C177.103 35.4385 177.107 35.01 177.107 34.5361V33.1187C177.107 32.6448 177.103 32.1998 177.099 31.7878C177.09 31.3757 177.09 31.0378 177.09 30.7659V30.2755C177.082 30.086 177.053 29.9212 176.995 29.777C176.941 29.6286 176.859 29.5133 176.747 29.435C176.734 29.4308 176.718 29.4226 176.693 29.4185C176.676 29.4061 176.668 29.3814 176.676 29.3402C176.689 29.2784 176.718 29.2454 176.772 29.2454H183.368L183.36 29.2495ZM191.049 34.0046V33.7285C191.049 33.3618 190.916 33.0239 190.652 32.7149C190.387 32.4017 190.014 32.1215 189.538 31.8825C189.058 31.6394 188.508 31.4334 187.875 31.2645C187.246 31.0996 186.563 30.9719 185.822 30.8854C185.086 30.7989 184.328 30.7577 183.546 30.7577C183.099 30.7577 182.685 30.7576 182.305 30.7494C181.928 30.737 181.572 30.7329 181.229 30.7329C180.885 30.7329 180.533 30.737 180.161 30.7412C179.793 30.7494 179.387 30.7576 178.944 30.7741C178.833 30.7741 178.741 30.8153 178.667 30.8936C178.592 30.9678 178.555 31.0626 178.555 31.1697V36.1926C178.555 36.2956 178.592 36.3863 178.667 36.4604C178.741 36.5346 178.828 36.5758 178.928 36.5799C179.482 36.6211 180.024 36.6541 180.542 36.6747C181.063 36.6912 181.597 36.7077 182.135 36.7159C182.673 36.7241 183.261 36.7241 183.894 36.7241C184.87 36.7241 185.789 36.6706 186.654 36.5593C187.519 36.4439 188.284 36.275 188.938 36.0525C189.596 35.83 190.114 35.5498 190.49 35.2119C190.863 34.8699 191.049 34.4661 191.049 34.0005V34.0046Z" fill="#515662"/>
<path d="M196.843 29.4556C196.698 29.4968 196.603 29.5586 196.558 29.6451C196.512 29.7317 196.487 29.8305 196.487 29.9377V37.6554C196.492 37.7584 196.508 37.8491 196.541 37.9315C196.57 38.0139 196.649 38.0757 196.773 38.1292C196.835 38.1622 196.864 38.1993 196.86 38.2323C196.852 38.2652 196.819 38.2858 196.748 38.2858H194.654C194.584 38.2858 194.555 38.2652 194.559 38.224C194.563 38.1869 194.592 38.1622 194.646 38.154C194.782 38.1169 194.873 38.051 194.923 37.9644C194.977 37.8779 195.002 37.7831 195.002 37.6719V33.7904L195.01 29.9459C195.002 29.8512 194.985 29.7605 194.956 29.6781C194.927 29.5998 194.849 29.5298 194.725 29.4721C194.654 29.4432 194.621 29.4103 194.621 29.3773C194.625 29.3443 194.667 29.3237 194.741 29.3237H196.835C196.91 29.3237 196.943 29.3443 196.939 29.3855C196.93 29.4185 196.901 29.4432 196.843 29.4556Z" fill="#515662"/>
<path d="M214 29.4554C213.988 29.5461 213.983 29.6861 213.992 29.8675C213.996 30.0446 214 30.2342 214 30.4237V31.2396C214 31.2808 213.979 31.3014 213.938 31.3014C213.905 31.3014 213.884 31.2808 213.884 31.2313C213.855 31.0377 213.781 30.9141 213.661 30.8605C213.545 30.8028 213.408 30.774 213.247 30.774H209.688C209.481 30.7822 209.377 30.8811 209.377 31.0748V37.5027C209.377 37.614 209.398 37.7211 209.448 37.8283C209.502 37.9313 209.576 38.0054 209.68 38.0508C209.709 38.0755 209.742 38.092 209.783 38.1043C209.829 38.1126 209.845 38.1373 209.824 38.1826C209.812 38.2238 209.787 38.2444 209.746 38.2444H207.548C207.519 38.2403 207.499 38.2197 207.486 38.1826C207.474 38.1538 207.482 38.1291 207.511 38.1126C207.54 38.0961 207.565 38.0837 207.59 38.0796C207.747 38.0013 207.834 37.9189 207.859 37.8406C207.888 37.7541 207.9 37.6346 207.9 37.478V37.0124C207.904 36.761 207.908 36.4438 207.908 36.0688C207.908 35.6938 207.904 35.2859 207.9 34.8491V32.3233C207.9 31.9524 207.896 31.6434 207.892 31.4044C207.884 31.1654 207.884 31.0253 207.884 30.9924C207.875 30.8523 207.801 30.774 207.652 30.7698C207.619 30.7698 207.474 30.7698 207.23 30.7616C206.981 30.7575 206.654 30.7534 206.257 30.7534H199.189C199.032 30.7492 198.908 30.7781 198.817 30.8481C198.73 30.9141 198.672 31.0253 198.634 31.1819C198.622 31.1943 198.614 31.2107 198.61 31.2355C198.61 31.2519 198.597 31.2602 198.576 31.2602C198.543 31.2602 198.523 31.2313 198.523 31.1654C198.523 30.9017 198.519 30.638 198.514 30.366V29.5419C198.514 29.406 198.527 29.3235 198.556 29.2947C198.589 29.2617 198.672 29.2411 198.796 29.2411H213.789C213.926 29.237 213.996 29.3071 213.996 29.4472L214 29.4554Z" fill="#515662"/>
<path d="M52.0809 45.2984V46.3285H47.8474V49.6002H51.2863V50.6303H47.8474V55.0104H46.5728V45.3025H52.0809V45.2984Z" fill="#515662"/>
<path d="M59.3761 55.1012C58.4657 55.1012 57.638 54.891 56.8931 54.4749C56.1524 54.0505 55.5606 53.4612 55.126 52.7072C54.6957 51.949 54.4805 51.0919 54.4805 50.1483C54.4805 49.2047 54.6957 48.3436 55.126 47.5895C55.5606 46.8313 56.1524 46.238 56.8931 45.8218C57.638 45.3974 58.4657 45.1873 59.3761 45.1873C60.2865 45.1873 61.1183 45.4015 61.8674 45.8218C62.6123 46.2421 63.1999 46.8272 63.6262 47.5813C64.0565 48.3312 64.2717 49.1883 64.2717 50.1483C64.2717 51.1084 64.0565 51.9614 63.6262 52.7154C63.1999 53.4653 62.6123 54.0505 61.8674 54.4749C61.1183 54.8952 60.2907 55.1012 59.3761 55.1012ZM59.3761 54.001C60.0548 54.001 60.6631 53.8444 61.2135 53.5271C61.7598 53.214 62.186 52.7649 62.4964 52.1797C62.8109 51.5905 62.9723 50.9148 62.9723 50.1442C62.9723 49.3737 62.8109 48.6814 62.4964 48.1005C62.186 47.5153 61.7598 47.0662 61.2218 46.7531C60.6797 46.4399 60.0672 46.2792 59.3761 46.2792C58.685 46.2792 58.0684 46.4399 57.5221 46.7531C56.98 47.0703 56.5579 47.5153 56.2475 48.1005C55.9372 48.6814 55.7799 49.3613 55.7799 50.1442C55.7799 50.9271 55.9372 51.5905 56.2475 52.1797C56.5579 52.7649 56.9842 53.214 57.5304 53.5271C58.0767 53.8444 58.6891 54.001 59.3761 54.001Z" fill="#515662"/>
<path d="M72.4123 55.0063L70.0824 51.03H68.5471V55.0063H67.2725V45.2984H70.4176C71.1542 45.2984 71.775 45.4261 72.2798 45.6775C72.7888 45.9247 73.1737 46.2626 73.4261 46.6911C73.6786 47.1197 73.8069 47.6059 73.8069 48.1498C73.8069 48.8214 73.6124 49.4107 73.2192 49.9257C72.8344 50.4367 72.255 50.7745 71.477 50.9394L73.9352 55.0104H72.4081L72.4123 55.0063ZM68.5512 50.0205H70.4217C71.1128 50.0205 71.6301 49.8516 71.9736 49.5137C72.3171 49.1717 72.4909 48.7143 72.4909 48.1498C72.4909 47.5853 72.3212 47.1361 71.9819 46.8189C71.6425 46.4975 71.1211 46.3368 70.4217 46.3368H68.5512V50.0205Z" fill="#515662"/>
<path d="M86.9953 45.3685V55.0105H85.729V47.8243L82.5053 55.0105H81.6155L78.3835 47.8079V55.0105H77.1089V45.3685H78.4787L82.0666 53.3335L85.6462 45.3685H86.9995H86.9953Z" fill="#515662"/>
<path d="M100.685 55.0063L98.3551 51.03H96.8198V55.0063H95.5452V45.2984H98.6903C99.4269 45.2984 100.048 45.4261 100.553 45.6775C101.062 45.9247 101.446 46.2626 101.699 46.6911C101.951 47.1197 102.08 47.6059 102.08 48.1498C102.08 48.8214 101.885 49.4107 101.492 49.9257C101.107 50.4367 100.528 50.7745 99.7497 50.9394L102.208 55.0104H100.681L100.685 55.0063ZM96.8239 50.0205H98.6944C99.3855 50.0205 99.9028 49.8516 100.246 49.5137C100.59 49.1717 100.764 48.7143 100.764 48.1498C100.764 47.5853 100.594 47.1361 100.255 46.8189C99.9152 46.4975 99.3938 46.3368 98.6944 46.3368H96.8239V50.0205Z" fill="#515662"/>
<path d="M106.653 46.3286V49.5755H110.203V50.6221H106.653V53.9598H110.626V55.0064H105.374V45.282H110.626V46.3286H106.653Z" fill="#515662"/>
<path d="M121.944 45.2984L118.261 55.0063H116.796L113.113 45.2984H114.466L117.536 53.6671L120.599 45.2984H121.944Z" fill="#515662"/>
<path d="M129.09 55.1012C128.18 55.1012 127.352 54.891 126.607 54.4749C125.866 54.0505 125.274 53.4612 124.84 52.7072C124.41 51.949 124.194 51.0919 124.194 50.1483C124.194 49.2047 124.41 48.3436 124.84 47.5895C125.274 46.8313 125.866 46.238 126.607 45.8218C127.352 45.3974 128.18 45.1873 129.09 45.1873C130 45.1873 130.832 45.4015 131.581 45.8218C132.326 46.2421 132.914 46.8272 133.34 47.5813C133.77 48.3312 133.986 49.1883 133.986 50.1483C133.986 51.1084 133.77 51.9614 133.34 52.7154C132.914 53.4653 132.326 54.0505 131.581 54.4749C130.832 54.8952 130.005 55.1012 129.09 55.1012ZM129.09 54.001C129.769 54.001 130.377 53.8444 130.927 53.5271C131.474 53.214 131.9 52.7649 132.21 52.1797C132.525 51.5905 132.686 50.9148 132.686 50.1442C132.686 49.3737 132.525 48.6814 132.21 48.1005C131.9 47.5153 131.474 47.0662 130.936 46.7531C130.394 46.4399 129.781 46.2792 129.09 46.2792C128.399 46.2792 127.782 46.4399 127.236 46.7531C126.694 47.0703 126.272 47.5153 125.961 48.1005C125.651 48.6814 125.494 49.3613 125.494 50.1442C125.494 50.9271 125.651 51.5905 125.961 52.1797C126.272 52.7649 126.698 53.214 127.244 53.5271C127.791 53.8444 128.403 54.001 129.09 54.001Z" fill="#515662"/>
<path d="M138.27 53.9762H141.684V55.0063H136.995V45.2984H138.27V53.9762Z" fill="#515662"/>
<path d="M145.607 45.2984V51.4462C145.607 52.3033 145.818 52.9461 146.244 53.3705C146.67 53.7908 147.262 53.9968 148.019 53.9968C148.777 53.9968 149.344 53.7866 149.77 53.3705C150.196 52.9461 150.407 52.3074 150.407 51.4462V45.2984H151.682V51.4297C151.682 52.2373 151.516 52.9172 151.189 53.4735C150.862 54.0215 150.419 54.4336 149.861 54.7014C149.31 54.9733 148.69 55.1052 147.999 55.1052C147.307 55.1052 146.683 54.9733 146.128 54.7014C145.578 54.4336 145.139 54.0215 144.816 53.4735C144.493 52.9213 144.332 52.2373 144.332 51.4297V45.2984H145.598H145.607Z" fill="#515662"/>
<path d="M161.133 45.2984V46.3285H158.476V55.0063H157.202V46.3285H154.528V45.2984H161.133Z" fill="#515662"/>
<path d="M165.305 45.2984V55.0063H164.03V45.2984H165.305Z" fill="#515662"/>
<path d="M173.221 55.1012C172.311 55.1012 171.483 54.891 170.738 54.4749C169.998 54.0505 169.406 53.4612 168.971 52.7072C168.541 51.949 168.326 51.0919 168.326 50.1483C168.326 49.2047 168.541 48.3436 168.971 47.5895C169.406 46.8313 169.998 46.238 170.738 45.8218C171.483 45.3974 172.311 45.1873 173.221 45.1873C174.132 45.1873 174.964 45.4015 175.713 45.8218C176.457 46.2421 177.045 46.8272 177.471 47.5813C177.902 48.3312 178.117 49.1883 178.117 50.1483C178.117 51.1084 177.902 51.9614 177.471 52.7154C177.045 53.4653 176.457 54.0505 175.713 54.4749C174.964 54.8952 174.136 55.1012 173.221 55.1012ZM173.221 54.001C173.9 54.001 174.508 53.8444 175.059 53.5271C175.605 53.214 176.031 52.7649 176.342 52.1797C176.656 51.5905 176.818 50.9148 176.818 50.1442C176.818 49.3737 176.656 48.6814 176.342 48.1005C176.031 47.5153 175.605 47.0662 175.067 46.7531C174.525 46.4399 173.912 46.2792 173.221 46.2792C172.53 46.2792 171.914 46.4399 171.367 46.7531C170.825 47.0703 170.403 47.5153 170.093 48.1005C169.782 48.6814 169.625 49.3613 169.625 50.1442C169.625 50.9271 169.782 51.5905 170.093 52.1797C170.403 52.7649 170.829 53.214 171.376 53.5271C171.922 53.8444 172.534 54.001 173.221 54.001Z" fill="#515662"/>
<path d="M188.789 55.0064H187.523L182.4 47.2722V55.0064H181.125V45.282H182.4L187.523 52.9997V45.282H188.789V55.0064Z" fill="#515662"/>
</svg>
