<svg width="154" height="84" viewBox="0 0 154 84" fill="none" xmlns="http://www.w3.org/2000/svg">
<g clip-path="url(#clip0_85_526)">
<path d="M82.4519 49.7235V60.8462H85.6511V56.7214H88.7254V54.2516H85.6511V52.2724H89.4826V49.7235H82.4519Z" fill="#515662"/>
<path d="M65.9735 49.7235V60.8462H69.1727V56.7214H72.247V54.2516H69.1727V52.2724H73.0042V49.7235H65.9735Z" fill="#515662"/>
<path d="M45.5597 55.2869C45.5597 59.0416 47.7562 61 51.0469 61C54.3376 61 56.5342 59.0374 56.5342 55.2869C56.5342 51.5364 54.3376 49.5738 51.0469 49.5738C47.7562 49.5738 45.5597 51.5364 45.5597 55.2869ZM53.2268 55.2869C53.2268 56.9875 52.6403 58.5301 51.0469 58.5301C49.4536 58.5301 48.867 56.9875 48.867 55.2869C48.867 53.5863 49.4536 52.0436 51.0469 52.0436C52.6403 52.0436 53.2268 53.5863 53.2268 55.2869Z" fill="#515662"/>
<path d="M35.205 57.7401C34.5394 58.1559 33.7698 58.3721 32.9794 58.3721C31.0491 58.3721 30.5082 57.2287 30.5082 55.237C30.5082 53.2453 31.1406 52.1185 33.1374 52.1185C33.7074 52.1185 34.3897 52.2432 35.022 52.5509L35.9664 50.4345C34.9929 49.8482 33.878 49.5696 32.7048 49.5696C29.2103 49.5696 27.2051 52.1642 27.2051 55.4241C27.2051 58.684 28.8899 61 32.4885 61C33.8031 61 35.101 60.6466 36.1203 59.9355L35.2092 57.7443L35.205 57.7401Z" fill="#515662"/>
<path d="M115.708 60.8462H123.051V58.2973H118.907V56.3514H121.982V53.9439H118.907V52.2724H122.739V49.7235H115.708V60.8462Z" fill="#515662"/>
<path d="M98.926 60.8462H106.265V58.2973H102.125V56.3514H105.2V53.9439H102.125V52.2724H105.957V49.7235H98.926V60.8462Z" fill="#515662"/>
<path d="M136.442 25.2869H136.95C137.195 25.2869 137.362 25.2495 137.449 25.1788C137.536 25.1081 137.582 25.0125 137.582 24.8919C137.582 24.817 137.561 24.7464 137.52 24.6881C137.478 24.6258 137.42 24.5842 137.341 24.5509C137.266 24.5218 137.125 24.5052 136.921 24.5052H136.442V25.2869ZM136.022 26.7505V24.1559H136.917C137.224 24.1559 137.445 24.1809 137.582 24.2266C137.719 24.2765 137.828 24.3597 137.911 24.4761C137.99 24.5967 138.031 24.7214 138.031 24.8545C138.031 25.0457 137.965 25.2079 137.828 25.3493C137.69 25.4906 137.511 25.5696 137.287 25.5863C137.378 25.6237 137.453 25.6694 137.507 25.7235C137.611 25.8233 137.74 25.9979 137.894 26.2391L138.21 26.7464H137.703L137.47 26.3389C137.287 26.0146 137.141 25.815 137.029 25.7318C136.954 25.6736 136.842 25.6445 136.692 25.6445H136.446V26.7464H136.026L136.022 26.7505ZM137.083 23.3992C136.742 23.3992 136.413 23.4865 136.089 23.6611C135.768 23.8358 135.515 24.0852 135.336 24.4096C135.153 24.7339 135.065 25.0707 135.065 25.42C135.065 25.7692 135.157 26.1019 135.332 26.422C135.51 26.7422 135.76 26.9917 136.08 27.1705C136.401 27.3493 136.733 27.4366 137.083 27.4366C137.432 27.4366 137.765 27.3451 138.086 27.1705C138.406 26.9917 138.655 26.7422 138.834 26.422C139.013 26.1019 139.101 25.7692 139.101 25.42C139.101 25.0707 139.009 24.7339 138.83 24.4096C138.651 24.0852 138.398 23.8358 138.077 23.6611C137.753 23.4865 137.424 23.3992 137.087 23.3992H137.083ZM137.083 23C137.491 23 137.886 23.104 138.273 23.3119C138.66 23.5198 138.959 23.8191 139.175 24.2058C139.392 24.5925 139.5 25 139.5 25.4158C139.5 25.8316 139.396 26.2349 139.18 26.6175C138.967 27.0042 138.672 27.2994 138.285 27.5114C137.902 27.7235 137.499 27.8316 137.083 27.8316C136.667 27.8316 136.263 27.7235 135.881 27.5114C135.498 27.2994 135.198 27 134.986 26.6175C134.774 26.2349 134.666 25.8316 134.666 25.4158C134.666 25 134.774 24.5925 134.99 24.2058C135.207 23.8191 135.51 23.5198 135.897 23.3119C136.284 23.104 136.679 23 137.087 23H137.083Z" fill="#515662"/>
<path d="M74.0317 32.7297H75.3172C75.858 32.7297 76.3156 32.5343 76.6859 32.1393C77.0603 31.7443 77.2433 31.2703 77.2433 30.7131C77.2433 30.1559 77.0561 29.6861 76.6859 29.2994C76.3115 28.9168 75.858 28.7214 75.3172 28.7214H74.0317V32.7297ZM84.9854 43.9189H78.6703C77.8341 42.6507 77.1393 41.6362 76.5902 40.8752C76.041 40.1143 75.5918 39.5447 75.2506 39.158C74.9053 38.7755 74.6516 38.5426 74.481 38.4678C74.3146 38.3888 74.1981 38.4012 74.1315 38.4969C74.0858 38.5634 74.0567 38.6549 74.0442 38.7671C74.0151 39.0041 74.0359 39.5073 74.0359 39.7443V43.9189H68.17V23.0083H75.8538C76.7483 23.0083 77.6302 23.2287 78.4955 23.6736C79.3608 24.1143 80.1097 24.6715 80.7462 25.3451C81.4908 26.1143 82.0441 26.9875 82.4102 27.9688C82.7722 28.9501 82.9469 29.948 82.9261 30.9667C82.9095 31.9854 82.6973 32.9917 82.2979 33.9813C81.8985 34.9709 81.3244 35.8607 80.5798 36.6507L84.9937 43.9189H84.9854Z" fill="#515662"/>
<path d="M50.3563 43.9189V23.0374H59.1218C59.5336 23.0374 59.9621 23.0915 60.4031 23.1954C60.8441 23.2994 61.2767 23.4449 61.701 23.6279C62.1254 23.8108 62.5164 24.027 62.8867 24.2765C63.2528 24.526 63.569 24.8046 63.831 25.1123C64.3178 25.6486 64.688 26.2516 64.9293 26.9168C65.1748 27.5821 65.2954 28.2599 65.2954 28.9501C65.2954 29.7567 65.1249 30.5385 64.7879 31.2869C64.4509 32.0353 63.96 32.6923 63.3235 33.2495C63.7354 33.4782 64.1181 33.7775 64.4634 34.1434C64.8128 34.5093 65.1124 34.9044 65.3661 35.3243C65.6199 35.7484 65.8113 36.1933 65.9444 36.6674C66.0775 37.1372 66.1399 37.5946 66.1399 38.0353C66.1399 38.842 65.986 39.6029 65.674 40.3139C65.362 41.0249 64.9335 41.6445 64.376 42.1726C63.8227 42.7006 63.1779 43.1247 62.4457 43.4407C61.7135 43.7568 60.9231 43.9148 60.0786 43.9148H50.3563V43.9189ZM56.4426 27.5073V31.2578H57.6532C58.1982 31.2578 58.6683 31.0707 59.0635 30.7006C59.4587 30.3264 59.6543 29.8815 59.6543 29.3701C59.6543 28.8586 59.4587 28.4179 59.0635 28.052C58.6683 27.6902 58.1982 27.5073 57.6532 27.5073H56.4426ZM56.2721 35.2661V39.4491H57.8238C58.4437 39.4491 58.972 39.2412 59.4005 38.8337C59.8331 38.422 60.0495 37.9314 60.0495 37.3576C60.0495 36.7838 59.8331 36.2931 59.4005 35.8815C58.9678 35.474 58.4437 35.2661 57.8238 35.2661H56.2721Z" fill="#515662"/>
<path d="M41.6948 23.0083L48.1597 43.9189H42.0984L41.4328 41.4366H35.1135L34.477 43.9189H28.4156L34.8847 23.0083H41.6948ZM39.4733 35.5821L38.2918 30.7671L37.0812 35.5821H39.4775H39.4733Z" fill="#515662"/>
<path d="M113.965 23.0083L108.569 33.449L113.965 43.9189H107.126L103.29 36.4761V43.9189H97.2288V23.0083H103.29V30.4511L107.126 23.0083H113.965Z" fill="#515662"/>
<path d="M29.306 23.0083V28.605H20.5613V30.9418H27.6003V36.2765H20.5613V43.9189H14.5V23.0083H29.306Z" fill="#515662"/>
<path d="M93.3348 23.0083H87.2734V43.9189H93.3348V23.0083Z" fill="#515662"/>
<path d="M129.283 23.0083L135.747 43.9189H129.686L129.021 41.4366H122.701L122.065 43.9189H116.003L122.472 23.0083H129.283ZM127.061 35.5821L125.88 30.7671L124.669 35.5821H127.065H127.061Z" fill="#515662"/>
</g>
<defs>
<clipPath id="clip0_85_526">
<rect width="125" height="38" fill="white" transform="translate(14.5 23)"/>
</clipPath>
</defs>
</svg>
