<svg width="154" height="84" viewBox="0 0 154 84" fill="none" xmlns="http://www.w3.org/2000/svg">
<path d="M45.621 54.0829L33.4386 41.8728L45.7727 29.5387L49.6173 33.3821L41.1358 41.8728L49.481 50.223L45.621 54.0829Z" fill="#8891A7"/>
<path d="M36.2346 63.4693L14.5 41.7346L36.2346 20L45.7727 29.5381L42.981 32.3299L36.2346 25.5842L20.0842 41.7346L36.2346 57.8851L42.8323 51.2875L45.621 54.0829L36.2346 63.4693Z" fill="#515662"/>
<path d="M65.3832 59.7162L57.1781 67.9214L48.9729 59.7162L57.1781 51.511L65.3832 59.7162Z" fill="#8891A7"/>
<path d="M135.33 47.8695V38.3453H133.092V36.8969H135.33V32.9688H136.976V36.8969H139.5V38.3453H136.976V47.8695H135.33Z" fill="#515662"/>
<path d="M120.437 47.8697V36.8971H122.083V38.6088C122.478 38.0822 122.96 37.6359 123.531 37.2702C124.101 36.9044 124.833 36.7216 125.725 36.7216C126.486 36.7216 127.196 36.9044 127.854 37.2702C128.527 37.6213 129.068 38.1553 129.478 38.8722C129.902 39.5744 130.114 40.4449 130.114 41.4836V47.8697H128.469V41.5275C128.469 40.5327 128.183 39.7354 127.613 39.1355C127.042 38.5211 126.303 38.2138 125.396 38.2138C124.782 38.2138 124.226 38.3528 123.728 38.6308C123.231 38.9088 122.829 39.3038 122.521 39.8158C122.229 40.3132 122.083 40.8911 122.083 41.5495V47.8697H120.437Z" fill="#515662"/>
<path d="M111.557 48.0452C110.445 48.0452 109.472 47.7965 108.638 47.2991C107.804 46.787 107.153 46.0994 106.685 45.2363C106.231 44.3731 106.005 43.4221 106.005 42.3834C106.005 41.33 106.224 40.3791 106.663 39.5305C107.102 38.6674 107.731 37.9871 108.55 37.4896C109.37 36.9776 110.335 36.7216 111.447 36.7216C112.574 36.7216 113.539 36.9776 114.344 37.4896C115.163 37.9871 115.792 38.6674 116.231 39.5305C116.67 40.3791 116.889 41.33 116.889 42.3834V43.0418H107.694C107.782 43.6855 107.987 44.278 108.309 44.8193C108.645 45.346 109.092 45.7703 109.648 46.0921C110.203 46.3994 110.847 46.553 111.579 46.553C112.354 46.553 113.005 46.3847 113.532 46.0482C114.058 45.6971 114.468 45.2509 114.761 44.7096H116.56C116.18 45.6898 115.573 46.4944 114.739 47.1235C113.92 47.738 112.859 48.0452 111.557 48.0452ZM107.716 41.5056H115.178C115.031 40.5693 114.636 39.7866 113.993 39.1575C113.349 38.5284 112.5 38.2138 111.447 38.2138C110.394 38.2138 109.545 38.5284 108.901 39.1575C108.272 39.7866 107.877 40.5693 107.716 41.5056Z" fill="#515662"/>
<path d="M92.7189 47.8697V36.8971H94.3648V38.6088C94.7598 38.0822 95.2426 37.6359 95.8131 37.2702C96.3837 36.9044 97.1152 36.7216 98.0076 36.7216C98.7684 36.7216 99.478 36.9044 100.136 37.2702C100.809 37.6213 101.351 38.1553 101.76 38.8722C102.185 39.5744 102.397 40.4449 102.397 41.4836V47.8697H100.751V41.5275C100.751 40.5327 100.465 39.7354 99.8949 39.1355C99.3244 38.5211 98.5855 38.2138 97.6785 38.2138C97.064 38.2138 96.5081 38.3528 96.0106 38.6308C95.5132 38.9088 95.1109 39.3038 94.8037 39.8158C94.5111 40.3132 94.3648 40.8911 94.3648 41.5495V47.8697H92.7189Z" fill="#515662"/>
<path d="M86.6165 35.0537V32.9031H88.394V35.0537H86.6165ZM86.6823 47.8696V36.8971H88.3282V47.8696H86.6823Z" fill="#515662"/>
<path d="M66.094 47.8697V36.8971H67.7399V38.5649C67.9886 38.126 68.3836 37.7091 68.9249 37.3141C69.4662 36.9191 70.1831 36.7216 71.0755 36.7216C71.807 36.7216 72.48 36.9191 73.0945 37.3141C73.7236 37.6945 74.2137 38.2358 74.5648 38.938C74.7111 38.6893 74.9379 38.3894 75.2451 38.0383C75.567 37.6871 75.9839 37.3799 76.496 37.1166C77.008 36.8532 77.6225 36.7216 78.3394 36.7216C79.0416 36.7216 79.7 36.9044 80.3144 37.2702C80.9289 37.6359 81.4263 38.1626 81.8067 38.8502C82.2017 39.5232 82.3992 40.3206 82.3992 41.2423V47.8697H80.7533V41.2861C80.7533 40.3644 80.49 39.6256 79.9633 39.0697C79.4513 38.4991 78.8075 38.2138 78.0321 38.2138C77.2275 38.2138 76.5326 38.4845 75.9474 39.0258C75.3621 39.5671 75.0695 40.3279 75.0695 41.3081V47.8697H73.4237V41.2861C73.4237 40.3644 73.1603 39.6256 72.6336 39.0697C72.1216 38.4991 71.4779 38.2138 70.7025 38.2138C69.8978 38.2138 69.2029 38.4845 68.6177 39.0258C68.0325 39.5671 67.7399 40.3279 67.7399 41.3081V47.8697H66.094Z" fill="#515662"/>
<path d="M57.2142 48.0452C56.1023 48.0452 55.1294 47.7965 54.2955 47.2991C53.4616 46.787 52.8106 46.0994 52.3424 45.2363C51.8889 44.3731 51.6621 43.4221 51.6621 42.3834C51.6621 41.33 51.8816 40.3791 52.3205 39.5305C52.7594 38.6674 53.3885 37.9871 54.2077 37.4896C55.027 36.9776 55.9926 36.7216 57.1045 36.7216C58.231 36.7216 59.1966 36.9776 60.0013 37.4896C60.8205 37.9871 61.4496 38.6674 61.8885 39.5305C62.3274 40.3791 62.5469 41.33 62.5469 42.3834V43.0418H53.3519C53.4397 43.6855 53.6445 44.278 53.9663 44.8193C54.3028 45.346 54.7491 45.7703 55.305 46.0921C55.8609 46.3994 56.5047 46.553 57.2362 46.553C58.0116 46.553 58.6626 46.3847 59.1893 46.0482C59.716 45.6971 60.1256 45.2509 60.4182 44.7096H62.2177C61.8373 45.6898 61.2302 46.4944 60.3963 47.1235C59.577 47.738 58.5163 48.0452 57.2142 48.0452ZM53.3738 41.5056H60.8352C60.6889 40.5693 60.2939 39.7866 59.6501 39.1575C59.0064 38.5284 58.1579 38.2138 57.1045 38.2138C56.0511 38.2138 55.2026 38.5284 54.5589 39.1575C53.9298 39.7866 53.5348 40.5693 53.3738 41.5056Z" fill="#515662"/>
</svg>
