<svg width="154" height="84" viewBox="0 0 154 84" fill="none" xmlns="http://www.w3.org/2000/svg">
<g clip-path="url(#clip0_105_386)">
<path d="M98.1678 21.5444H94.2683V55.1305H98.1678V21.5444Z" fill="#515662"/>
<path d="M124.768 50.1148L120.868 49.9952V39.8067H118.269V49.3952H114.369V24.2505C114.369 23.153 116.149 21.6658 117.618 21.5444C118.438 21.4761 121.291 21.4743 122.013 21.6282C123.324 21.9085 124.766 23.2129 124.766 24.2522V50.1148H124.768ZM120.868 24.4796H118.269V36.8716H120.868V24.4796Z" fill="#515662"/>
<path d="M56.4065 32.5005H52.507V24.4796H50.0374L49.9078 24.5771V36.7725L50.0374 36.8699H53.5023C54.6306 36.8699 56.4712 38.4187 56.3946 39.323C56.4815 43.7334 56.4252 44.5232 56.3519 48.8499C56.3315 50.0534 54.5828 50.0516 53.0217 50.3833C52.1763 50.5628 49.5772 51.6278 48.7267 51.4534C47.4945 51.2021 46.01 53.6227 46.01 52.6193V44.1078H49.9095V52.0962L50.0391 52.1936L52.4507 48.6157L52.5087 39.8016H49.3454C47.82 39.8016 46.0799 38.3588 46.0202 37.2169L46.0066 24.2437C46.1157 22.9497 47.4945 21.6522 49.2551 21.5376C50.172 21.4778 53.112 21.4573 53.8909 21.6402C54.9919 21.8983 56.4065 23.0197 56.4065 23.9206V32.4971V32.5005Z" fill="#515662"/>
<path d="M43.1502 21.5444V24.3822L43.0207 24.4796H38.8178V36.8716H43.1502V39.805H38.8178V52.197H43.1502V55.1322H34.9199V21.5444H43.1502Z" fill="#515662"/>
<path d="M79.5393 21.5444V24.3822L79.4098 24.4796H75.2069V36.8716H79.5393V39.805H75.2069V52.197H79.5393V55.1322L71.2205 49.6977L71.3091 21.5444H79.5393Z" fill="#515662"/>
<path d="M68.8823 21.5444V24.4796H65.6765L65.6032 47.007L65.4719 47.1045H61.7036L61.7786 24.577L61.6491 24.4796H58.4858V21.5444H68.8823Z" fill="#515662"/>
<path d="M91.843 21.5444V24.4796H88.6372V55.033L88.5076 55.1322H84.7376V24.577L84.6081 24.4796H81.4465V21.5444H91.843Z" fill="#515662"/>
<path d="M104.157 38.5708H106.528C107.562 38.5708 108.295 37.4511 108.295 36.7775V21.5513H111.658V37.1041C111.658 38.0289 110.951 39.0734 110.105 39.711C110.922 39.923 111.658 41.0717 111.658 41.6683V49.6277H108.212V42.5812C108.21 41.9282 107.237 41.1794 106.356 41.1794H104.287L104.157 41.2769V51.7337H100.794V21.5513H104.157V21.6487V38.5708Z" fill="#515662"/>
<path d="M20 62.5L22.5105 58.3973C26.6401 57.7938 30.7629 56.8844 34.7613 55.6929C42.7581 53.3116 47.8302 50.9987 51.6394 48.8499C55.8338 46.4839 60.231 44.0992 65.3219 43.6753C70.0275 43.2838 73.6697 47.137 74.6633 48.0994C79.5156 52.8005 82.7539 53.8774 87.9828 54.1253C92.7038 54.3475 94.7626 53.5355 98.4338 51.6312C102.315 49.6174 106.712 47.3353 113.659 46.8583C119.511 46.4549 128.084 47.9917 134 50.3559L130.133 52.9919C124.696 50.8192 119.232 49.9012 113.892 50.2704C107.651 50.6995 103.762 52.7184 100.002 54.6689C96.0665 56.7117 92.351 58.6366 86.7148 58.3733C80.286 58.069 76.9421 55.1048 73.9918 52.4893C71.1882 50.0038 68.7663 47.8567 63.8629 47.7678C59.6805 47.6908 57.0149 49.1952 52.9807 51.4722C49.0232 53.7048 44.096 56.4844 35.7328 58.9734C31.5759 60.211 24.2915 61.876 20 62.5017L20 62.5Z" fill="#8891A7"/>
</g>
<defs>
<clipPath id="clip0_105_386">
<rect width="114" height="41" fill="white" transform="translate(20 21.5)"/>
</clipPath>
</defs>
</svg>
