<svg width="154" height="84" viewBox="0 0 154 84" fill="none" xmlns="http://www.w3.org/2000/svg">
<g clip-path="url(#clip0_85_883)">
<path fill-rule="evenodd" clip-rule="evenodd" d="M83.5199 30.2025C83.5199 30.8569 83.6208 31.3523 83.8857 31.8854L84.4867 33.0691C84.5559 33.1964 84.8702 33.6539 84.799 33.8011C84.7496 33.9006 84.5084 34.0458 84.4194 34.1055L83.86 34.4377L83.1325 35.0723C82.8577 35.3488 82.3457 35.9695 82.1282 36.2977C82.0056 36.4827 81.8831 36.6637 81.7763 36.8646C81.379 37.6086 81.0093 38.5655 81.0093 39.6954C81.0093 40.9865 81.5312 42.3889 82.5513 43.1667C83.0139 43.5208 83.6188 43.8491 84.1881 44.0182C86.5426 44.7104 89.3064 44.2927 91.2734 42.9778L91.7123 42.6575C91.7735 42.6097 91.7933 42.5779 91.8506 42.5322C91.993 42.4168 92.2816 42.1542 92.3765 42.011C92.4536 42.0627 92.5149 42.1263 92.5782 42.2019C92.8312 42.5063 93.3373 43.0295 93.6734 43.2026C94.2032 43.4751 95.3399 43.3199 95.9053 43.2722C96.2453 43.2423 96.5774 43.1628 96.8186 43.0355C97.6114 42.6217 97.301 41.7722 96.8246 41.1874C96.7732 41.1257 96.7475 41.0899 96.6941 41.0283C96.4213 40.7199 96.0397 40.2624 95.7531 39.9759C95.6997 39.9222 95.6582 39.8864 95.6127 39.8287L94.9109 39.0887L95.2845 38.3884C95.4091 38.1398 95.5317 37.8911 95.6404 37.6425L96.2967 36.0948C96.4489 35.7128 96.7929 34.8932 96.6743 34.3661C96.6071 34.0697 96.447 33.8449 96.1643 33.7753C95.8796 33.7036 95.334 33.6977 94.988 33.6977C94.4364 33.6977 94.2506 34.1552 94.0964 34.5352C93.8394 35.1638 93.4421 35.9237 93.1337 36.5105C92.8253 36.3037 92.5861 35.9695 92.3686 35.7546L91.6431 34.933C91.4869 34.7321 91.3248 34.567 91.1983 34.3283C91.2694 34.3084 91.3228 34.2527 91.392 34.2069C91.4651 34.1572 91.5146 34.1333 91.5857 34.0856C91.7202 33.9981 91.8368 33.9324 91.9712 33.8429C92.1076 33.7534 92.2223 33.6917 92.3587 33.6022C92.845 33.2759 93.6654 32.5578 94.0213 32.0923C94.9504 30.8788 95.589 30.1527 95.589 28.4638C95.589 27.2086 95.0829 26.0389 94.0312 25.3506C93.1969 24.8035 91.738 24.3619 90.362 24.3619C89.3182 24.3619 88.4682 24.5747 87.6794 24.8453C85.8863 25.458 84.3008 26.946 83.7592 28.8418C83.6504 29.2237 83.514 29.729 83.514 30.2005M87.0151 40.9029C86.5249 40.9029 86.0623 40.7617 85.7717 40.5508C85.6095 40.4315 85.4712 40.3061 85.3703 40.139C85.2834 39.9978 85.1608 39.7571 85.1608 39.5363C85.1608 38.7505 85.9436 37.5649 86.4735 36.9661C87.195 36.1505 87.1159 36.4986 87.8514 37.0656C87.9878 37.169 88.0807 37.3043 88.2171 37.4077L90.3344 39.5383C90.1604 39.8009 89.765 39.9938 89.4882 40.1331C89.4052 40.1748 89.3835 40.1967 89.3064 40.2385C88.9822 40.4136 88.393 40.6582 88.0352 40.7478C87.7505 40.8194 87.365 40.9049 87.0151 40.9049V40.9029ZM88.8181 31.778L88.5215 31.3384C88.0115 30.469 87.4975 29.1999 88.5116 28.4439C88.9901 28.0878 89.4586 27.9625 90.0991 27.9625C90.6566 27.9625 91.3268 28.4399 91.3268 29.0149C91.3268 29.6594 91.0777 30.0155 90.7218 30.4571C90.3067 30.9743 89.5139 31.6129 88.8181 31.776V31.778Z" fill="#515662"/>
<mask id="mask0_85_883" style="mask-type:luminance" maskUnits="userSpaceOnUse" x="81" y="24" width="17" height="21">
<path d="M83.5199 30.2025C83.5199 30.8569 83.6208 31.3523 83.8857 31.8854L84.4867 33.0691C84.5559 33.1964 84.8702 33.6539 84.799 33.8011C84.7496 33.9006 84.5084 34.0458 84.4194 34.1055L83.86 34.4377L83.1325 35.0723C82.8577 35.3488 82.3457 35.9695 82.1282 36.2977C82.0056 36.4827 81.8831 36.6637 81.7763 36.8646C81.379 37.6086 81.0093 38.5655 81.0093 39.6954C81.0093 40.9865 81.5312 42.3889 82.5513 43.1667C83.0139 43.5208 83.6188 43.8491 84.1881 44.0182C86.5426 44.7104 89.3064 44.2927 91.2734 42.9778L91.7123 42.6575C91.7735 42.6097 91.7933 42.5779 91.8506 42.5322C91.993 42.4168 92.2816 42.1542 92.3765 42.011C92.4536 42.0627 92.5149 42.1263 92.5782 42.2019C92.8312 42.5063 93.3373 43.0295 93.6734 43.2026C94.2032 43.4751 95.3399 43.3199 95.9053 43.2722C96.2453 43.2423 96.5774 43.1628 96.8186 43.0355C97.6114 42.6217 97.301 41.7722 96.8246 41.1874C96.7732 41.1257 96.7475 41.0899 96.6941 41.0283C96.4213 40.7199 96.0397 40.2624 95.7531 39.9759C95.6997 39.9222 95.6582 39.8864 95.6127 39.8287L94.9109 39.0887L95.2845 38.3884C95.4091 38.1398 95.5317 37.8911 95.6404 37.6425L96.2967 36.0948C96.4489 35.7128 96.7929 34.8932 96.6743 34.3661C96.6071 34.0697 96.447 33.8449 96.1643 33.7753C95.8796 33.7036 95.334 33.6977 94.988 33.6977C94.4364 33.6977 94.2506 34.1552 94.0964 34.5352C93.8394 35.1638 93.4421 35.9237 93.1337 36.5105C92.8253 36.3037 92.5861 35.9695 92.3686 35.7546L91.6431 34.933C91.4869 34.7321 91.3248 34.567 91.1983 34.3283C91.2694 34.3084 91.3228 34.2527 91.392 34.2069C91.4651 34.1572 91.5146 34.1333 91.5857 34.0856C91.7202 33.9981 91.8368 33.9324 91.9712 33.8429C92.1076 33.7534 92.2223 33.6917 92.3587 33.6022C92.845 33.2759 93.6654 32.5578 94.0213 32.0923C94.9504 30.8788 95.589 30.1527 95.589 28.4638C95.589 27.2086 95.0829 26.0389 94.0312 25.3506C93.1969 24.8035 91.738 24.3619 90.362 24.3619C89.3182 24.3619 88.4682 24.5747 87.6794 24.8453C85.8863 25.458 84.3008 26.946 83.7592 28.8418C83.6504 29.2237 83.514 29.729 83.514 30.2005M87.0151 40.9029C86.5249 40.9029 86.0623 40.7617 85.7717 40.5508C85.6095 40.4315 85.4712 40.3061 85.3703 40.139C85.2834 39.9978 85.1608 39.7571 85.1608 39.5363C85.1608 38.7505 85.9436 37.5649 86.4735 36.9661C87.195 36.1505 87.1159 36.4986 87.8514 37.0656C87.9878 37.169 88.0807 37.3043 88.2171 37.4077L90.3344 39.5383C90.1604 39.8009 89.765 39.9938 89.4882 40.1331C89.4052 40.1748 89.3835 40.1967 89.3064 40.2385C88.9822 40.4136 88.393 40.6582 88.0352 40.7478C87.7505 40.8194 87.365 40.9049 87.0151 40.9049V40.9029ZM88.8181 31.778L88.5215 31.3384C88.0115 30.469 87.4975 29.1999 88.5116 28.4439C88.9901 28.0878 89.4586 27.9625 90.0991 27.9625C90.6566 27.9625 91.3268 28.4399 91.3268 29.0149C91.3268 29.6594 91.0777 30.0155 90.7218 30.4571C90.3067 30.9743 89.5139 31.6129 88.8181 31.776V31.778Z" fill="white"/>
</mask>
<g mask="url(#mask0_85_883)">
<path d="M97.6138 24.3644H81.0117V44.709H97.6138V24.3644Z" fill="#515662"/>
</g>
<path fill-rule="evenodd" clip-rule="evenodd" d="M113.622 38.8002C113.622 39.966 113.812 40.9308 114.164 41.7523C114.52 42.5859 115.16 43.4353 115.878 43.9724C115.969 44.04 116.046 44.1017 116.131 44.1634C117.497 45.1362 119.326 45.4902 121.01 45.2078C121.728 45.0864 122.331 44.8696 122.951 44.5573L123.519 44.233C123.831 44.048 124.106 43.8093 124.369 43.5646C124.596 43.3517 124.679 43.308 124.914 43.0096C125.419 42.377 125.583 42.1263 125.946 41.3923C126.047 41.1894 126.134 41.0143 126.221 40.7995C126.304 40.5906 126.379 40.3797 126.468 40.1529C126.514 40.0376 126.528 39.952 126.567 39.8327C126.911 38.7684 127.002 37.8135 127.002 36.6677C127.002 35.309 126.579 33.9085 125.952 32.8602C125.83 32.6553 125.614 32.333 125.454 32.152C125.377 32.0644 125.343 32.0127 125.258 31.9292L125.075 31.7203C125.025 31.6706 125.013 31.6765 124.958 31.6268C124.393 31.1295 124.224 30.9425 123.388 30.5506C122.637 30.1985 121.573 29.9637 120.731 29.9637H120.13C118.778 29.9637 117.548 30.5625 116.677 31.2747C116.032 31.8019 115.36 32.6473 114.965 33.3913C114.931 33.453 114.919 33.4888 114.886 33.5485C114.85 33.6141 114.832 33.634 114.799 33.6977C114.741 33.8091 114.698 33.9284 114.642 34.0398C114.429 34.4715 114.273 34.9489 114.122 35.4363C113.836 36.3713 113.622 37.5848 113.622 38.7982M120.077 41.7165C119.496 41.7165 119.124 41.6171 118.709 41.2789C118.211 40.8711 117.944 40.3519 117.851 39.6974C117.801 39.3473 117.823 38.4919 117.867 38.1776C118.007 37.163 118.175 36.1922 118.604 35.2652C118.733 34.9867 118.861 34.7301 119.049 34.4775C119.583 33.7633 119.956 33.644 120.911 33.644C122.327 33.644 123.001 35.1041 123.001 36.3514C123.001 37.1809 122.987 37.8573 122.75 38.6749C122.546 39.3771 122.283 40.0873 121.878 40.6642C121.496 41.2073 120.795 41.7165 120.075 41.7165H120.077Z" fill="#515662"/>
<path fill-rule="evenodd" clip-rule="evenodd" d="M97.8386 35.3548C97.8386 37.2347 97.977 38.6311 98.7539 40.1927C99.2086 41.1058 99.7997 41.7961 100.61 42.375C102.927 44.0321 107.296 43.9287 109.625 42.1641C109.718 42.0945 109.817 42.0269 109.906 41.9473C110.007 41.8558 110.07 41.81 110.167 41.7106L110.898 40.9228C111.934 39.6497 112.665 37.5768 112.946 35.8839C113.053 35.2354 113.389 34.0916 113.065 33.443C112.97 33.2541 112.8 33.1566 112.565 33.1049C112.199 33.0233 111.792 33.0432 111.398 33.0432L110.238 32.9736C110.105 32.9537 109.967 32.9656 109.831 32.9636C109.676 32.9636 109.617 32.9338 109.439 32.9358C109.083 32.9397 108.433 32.8562 107.871 32.8562C107.494 32.8562 106.735 32.8463 106.442 32.9954C106.165 33.1387 106.189 33.4052 106.134 33.7613C106.033 34.4079 105.786 35.5358 105.944 36.1385C105.982 36.2798 106.001 36.3295 106.13 36.3991C106.545 36.6219 107.274 36.4986 107.767 36.5384C107.907 36.5503 108.01 36.5603 108.188 36.5623C108.267 36.5623 108.336 36.5722 108.38 36.5802C108.465 36.5941 108.526 36.5782 108.526 36.6697C108.526 36.8547 108.453 37.1491 108.405 37.3102C107.703 39.6934 104.633 40.5349 103.218 38.5933C102.241 37.2545 102.526 34.7858 102.793 33.1884C102.939 32.3151 103.135 31.4438 103.41 30.7058C103.552 30.3258 103.698 29.9956 103.876 29.6494C103.951 29.5022 104.068 29.3113 104.167 29.18C104.323 28.9711 104.515 28.7344 104.726 28.5872C104.813 28.5275 104.878 28.4897 104.967 28.436C106.043 27.7835 108.324 27.6343 109.083 29.168C109.406 29.8205 109.281 30.4292 109.714 30.6381C109.959 30.7555 110.641 30.7177 111.009 30.7276C111.143 30.7316 111.169 30.7555 111.321 30.7555L112.998 30.7058C113.361 30.668 113.62 30.7436 113.767 30.0871C113.808 29.9001 113.83 29.6574 113.83 29.4406C113.83 27.4712 112.954 26.2537 111.889 25.3466C110.888 24.4952 109.271 23.7611 107.429 23.7611C106.144 23.7611 105.222 23.8089 104.04 24.2186C103.872 24.2763 103.73 24.336 103.568 24.4017C102.761 24.7259 102.227 25.08 101.579 25.6072L100.915 26.2278L100.332 26.9301C99.0564 28.6409 98.3447 30.8868 98.0521 32.9974C97.9493 33.7414 97.8386 34.5232 97.8386 35.3587" fill="#515662"/>
<path fill-rule="evenodd" clip-rule="evenodd" d="M41.5283 26.8365C42.0205 26.8365 42.5128 26.0826 42.7618 25.7106C42.8706 25.5494 42.9714 25.3784 43.0623 25.1973C43.5684 24.1709 43.6989 23.4945 43.6989 22.287C43.6989 21.8414 43.6297 21.2903 43.5249 20.9362C43.1434 19.6392 42.0284 20.1007 41.4334 21.2167C41.1507 21.7459 40.9806 22.3467 40.8482 23.019C40.6663 23.9421 40.5556 25.7523 41.1704 26.5898C41.2495 26.6993 41.3879 26.8325 41.5302 26.8325" fill="#515662"/>
<path fill-rule="evenodd" clip-rule="evenodd" d="M31.7563 20.1565C31.7563 21.0596 32.2031 22.3188 32.6005 23.1185C32.8871 23.6974 33.4288 24.5648 33.8657 25.0263C34.7395 25.9493 35.0598 26.2716 36.1174 26.8883C36.8093 27.2901 37.8769 27.676 38.9661 27.676C39.8834 27.676 40.4034 27.5089 40.4034 26.4924C40.4034 26.0746 40.2333 25.3684 40.0851 24.9706C39.9091 24.4971 39.6422 23.8307 39.3793 23.3931L39.0175 22.8361C38.7744 22.4859 38.5411 22.2731 38.3909 22.0742L37.4281 21.2028C36.7797 20.6916 35.7991 20.1863 35.0103 19.9536C34.7692 19.8819 34.5557 19.8083 34.2987 19.7487C34.0318 19.689 33.8222 19.6373 33.5415 19.5895C32.9662 19.498 32.9484 19.5 32.383 19.5C31.9956 19.5 31.7563 19.7705 31.7563 20.1565Z" fill="#515662"/>
<path fill-rule="evenodd" clip-rule="evenodd" d="M35.3229 22.7704C37.4105 23.7313 38.9841 25.0382 39.9093 26.7868C40.0991 27.0613 40.016 27.3359 39.7333 26.9639C38.476 25.647 36.9538 24.332 35.1746 23.0151C34.9393 22.8599 35.1034 22.6809 35.3229 22.7704Z" fill="#515662"/>
<path fill-rule="evenodd" clip-rule="evenodd" d="M46.2115 51.677C42.748 52.0012 33.5356 54.4023 30.0859 55.7311C29.7498 55.8605 29.2397 56.0435 29.5462 56.505C29.7478 56.8074 30.4397 56.688 30.8272 56.6283C35.5066 55.9042 40.6663 54.8937 45.312 53.8413C46.0198 53.6802 47.0695 53.4773 47.3759 53.0197C48.0837 51.9614 47.196 51.5874 46.2135 51.6789" fill="#515662"/>
<path fill-rule="evenodd" clip-rule="evenodd" d="M47.7833 56.2563C44.7013 56.8531 37.5191 58.2576 34.5656 59.5665C33.682 59.9584 34.0082 60.5612 35.1034 60.41C38.7448 59.9047 44.1181 59.5427 47.3049 58.4565C49.778 57.613 48.6847 56.0833 47.7833 56.2583" fill="#515662"/>
<path fill-rule="evenodd" clip-rule="evenodd" d="M38.8298 64.1399C38.9761 64.5875 44.9681 64.0723 45.8795 63.7222C46.8403 63.3522 46.7217 62.5167 46.437 62.2262C45.9961 61.7786 45.0294 62.1347 44.4027 62.274L40.3936 63.2587C39.5593 63.4656 38.7567 63.4337 38.8298 64.1399Z" fill="#515662"/>
<path fill-rule="evenodd" clip-rule="evenodd" d="M67.3448 42.9022C67.3448 43.869 67.4832 44.1873 68.6515 44.1912C68.8275 44.1912 68.9224 44.2191 69.122 44.2171C69.4502 44.2171 69.7349 44.243 70.0887 44.243C71.2828 44.243 72.459 44.1674 73.5167 44.0381C74.0682 43.9704 74.5882 43.8909 75.0804 43.7715C75.8198 43.5905 76.4069 43.4015 76.9703 42.938C77.0554 42.8684 77.1404 42.8107 77.2175 42.739C77.8264 42.1721 78.2118 41.5992 78.5479 40.8432C78.6448 40.6264 78.7239 40.4056 78.795 40.1729C79.3703 38.283 79.0501 36.0013 77.4784 34.7063C77.3895 34.6326 77.1443 34.4357 77.0395 34.4118C77.0712 34.2945 77.3005 34.1652 77.4389 34.0239C77.7433 33.7136 77.8422 33.6818 78.2336 33.2202C78.799 32.5538 79.2339 31.223 79.2339 30.1786C79.2339 29.2755 79.1706 28.8577 78.8919 28.0779C78.7515 27.684 78.4115 27.0474 78.1051 26.7391C77.8283 26.4606 77.8857 26.4884 77.5694 26.2278C76.9605 25.7246 76.0867 25.45 75.2485 25.3287C74.6435 25.2412 73.8626 25.2332 73.2241 25.2869H71.1088C70.3872 25.2869 69.7309 25.2988 69.1042 25.4003C68.44 25.5077 68.4439 26.1164 68.3629 26.8107C68.3135 27.2384 68.185 28.3743 68.183 28.7582C68.183 28.8875 68.1652 28.8955 68.1573 28.995C68.1514 29.0785 68.1612 29.17 68.1553 29.2556C68.1454 29.3789 68.1415 29.6116 68.1237 29.7489C68.0822 30.0612 68.1059 30.4352 68.0762 30.7794L67.9991 32.2793C67.9892 32.4603 68.0169 32.6473 67.9912 32.8244L67.9201 34.3561C67.924 34.6983 67.8528 35.4741 67.843 35.8819L67.5919 39.3891C67.5662 39.5701 67.5701 39.6914 67.5504 39.8725L67.3725 41.8498C67.3586 42.0289 67.3725 42.1999 67.3527 42.3551C67.3309 42.5143 67.3448 42.7331 67.3448 42.9002M72.8584 40.5608C72.3997 40.5608 71.9846 40.4812 71.5259 40.4812C71.5259 39.962 71.6347 38.9196 71.6307 38.4302C71.6268 37.9309 71.7355 36.8686 71.7355 36.3534C72.374 36.3534 72.9829 36.3793 73.6155 36.433C74.1098 36.4747 74.687 36.6219 74.9381 37.0477C75.5351 38.0562 75.1615 39.8168 73.8429 40.3419C73.572 40.4494 73.2182 40.5588 72.8564 40.5588L72.8584 40.5608ZM71.8403 32.8303C71.8936 32.6016 71.9016 31.2588 71.949 30.8351L72.0004 29.8364C72.034 29.5301 72.0478 29.1521 72.0478 28.808C73.0126 28.808 73.8192 28.6628 74.4577 29.0646C75.114 29.4784 75.3097 30.1169 75.2326 30.9067C75.1931 31.3085 74.8926 32.0724 74.6356 32.2793C74.3944 32.4743 74.0959 32.6652 73.7895 32.7687C73.4613 32.8801 72.2396 32.8303 71.8383 32.8303H71.8403ZM54.0204 44.7423C54.0204 45.6494 54.7103 45.5579 55.4319 45.5579C55.9973 45.5579 57.2586 45.345 57.4978 44.8218C57.6678 44.4479 57.8497 42.9002 57.9169 42.4029C58.0513 41.4082 58.0553 41.5196 58.4111 41.4818L62.1475 40.9825C62.1929 41.08 62.527 43.0593 62.5607 43.3C62.62 43.7297 62.7129 44.3464 63.1142 44.5573C63.47 44.7443 65.0871 44.4976 65.5517 44.4061C65.7731 44.3623 66.1072 44.3166 66.2515 44.2171C66.4473 44.0798 66.554 43.8013 66.5323 43.5925L63.5906 31.0101C63.5313 30.7535 63.474 30.5307 63.4167 30.2641C63.213 29.3212 62.9185 28.2171 62.7326 27.2961C62.529 26.2816 62.5587 25.5137 60.7063 25.8857C60.1982 25.9871 59.6763 26.0409 59.1564 26.1403C58.767 26.2139 57.9307 26.3392 57.6777 26.4944C57.4306 26.6456 57.3792 26.7689 57.3218 27.0315L56.8158 29.2834C56.1831 32.331 55.592 35.3667 54.9871 38.4083C54.7835 39.4308 54.6075 40.4514 54.4316 41.5057L54.0995 43.9068C54.0698 44.1833 54.0164 44.4618 54.0164 44.7443L54.0204 44.7423ZM58.8025 38.0901C58.8045 37.9727 58.8441 37.8275 58.8658 37.7061L59.3502 34.933C59.4352 34.4098 59.5459 33.8628 59.6309 33.3476C59.6763 33.075 59.7258 32.8323 59.7693 32.5658C59.791 32.4345 59.8207 32.2873 59.8404 32.1639C59.8661 32.0107 59.8997 31.9113 59.8997 31.7501H59.9511C59.9511 31.8854 60.8783 36.0092 60.9238 36.1883L61.2579 37.6663C61.0819 37.6803 60.8289 37.7379 60.6529 37.7678L58.8006 38.0861L58.8025 38.0901ZM40.5122 30.5705C40.5122 31.1792 40.6644 32.1798 40.7553 32.7965C40.8403 33.3794 40.872 34.4834 40.9491 35.0723L41.0855 36.7751C41.129 37.6584 41.2733 38.7525 41.3227 39.6397C41.3583 40.2723 41.4967 41.2749 41.5303 41.9016C41.5718 42.6615 41.6884 43.4174 41.7398 44.1634L41.898 45.8443C41.898 46.3337 41.8466 47.205 42.0799 47.5293C42.4733 48.0783 43.4341 47.8754 44.0291 47.7799C44.7032 47.6705 45.3536 47.6566 45.7134 47.1076C46.1483 46.4471 45.9447 45.3172 45.8222 44.5792L45.4288 41.9791C45.3675 41.5375 45.2963 41.1078 45.2963 40.6125C45.4367 40.5787 45.4802 40.5289 45.7668 40.4812L46.4212 40.4295C46.524 40.4295 46.8304 41.1019 46.8917 41.2192L47.3286 42.0428C47.4768 42.3193 47.5935 42.6217 47.7496 42.8803L48.1826 43.7078C48.2656 43.873 49.3608 45.9398 49.5387 46.1308C50.0567 46.6878 50.6695 46.5565 51.3456 46.3835L52.4942 46.0413C52.86 45.916 53.1624 45.5678 53.1624 45.1103C53.1624 44.8099 52.943 44.5115 52.8323 44.2867C52.6959 44.0102 52.5654 43.7735 52.431 43.5069L50.8376 40.4315C50.7407 40.2365 50.0646 39.0012 50.0527 38.8798C50.3078 38.8201 50.8435 38.281 51.0155 38.0622C51.7628 37.1113 52.1601 36.057 52.2946 34.8276C52.3301 34.4994 52.3657 33.9961 52.3282 33.6718C52.3163 33.5684 52.3321 33.4649 52.3222 33.3615C52.2254 32.152 51.8161 30.7774 51.061 29.8444C51.0076 29.7787 50.976 29.731 50.9186 29.6713C50.628 29.3709 50.6913 29.3869 50.2742 29.0586C49.6811 28.5931 48.7974 28.2331 47.9078 28.2331C47.2732 28.2331 47.1546 28.251 46.524 28.3405C45.0136 28.5513 43.1276 28.979 41.6469 29.3491C41.3543 29.4227 41.0242 29.538 40.7909 29.6713C40.6347 29.7608 40.6051 29.8444 40.5715 30.0294C40.5458 30.1766 40.5122 30.4233 40.5122 30.5745V30.5705ZM44.8752 32.4106C45.1026 32.4106 45.3556 32.3589 45.577 32.327C46.2689 32.2296 47.5757 32.0844 47.9592 32.8303C48.317 33.5246 48.3131 34.8077 48.0857 35.5895C47.8386 36.435 47.2574 36.6259 46.3856 36.7711C45.9645 36.8408 45.5513 36.8945 45.1619 36.986L44.8752 32.4106ZM27 38.5635C27 38.9574 27.0198 39.2697 27.0257 39.6696L27.1048 40.7478C27.1898 42.4725 27.7789 45.8026 28.457 47.3801C28.5202 47.5253 28.5716 47.6347 28.6329 47.7819C28.8405 48.2872 29.4395 49.1008 29.8468 49.4271C30.0622 49.6002 30.2481 49.7573 30.4952 49.9045C32.7746 51.2712 35.7577 50.6803 37.7643 49.0511C38.0865 48.7885 38.4107 48.4483 38.6598 48.1122C38.9445 47.7282 39.2193 47.2707 39.4031 46.8092C39.5652 46.4033 39.674 46.0214 39.7689 45.5479C39.842 45.1819 39.8717 44.8199 39.8835 44.428C39.8875 44.2867 39.9112 44.2091 39.9112 44.0341L39.8598 42.9817C39.8558 42.6555 39.7906 42.2716 39.755 41.9553C39.6621 41.1277 39.5554 39.8764 39.2331 39.1424C38.9504 38.4998 38.2368 38.6093 37.6239 38.7843C37.0842 38.9395 36.4575 39.0608 35.8506 39.2359C35.5482 39.3234 35.2694 39.4289 34.9946 39.5044C34.5518 39.6278 33.6543 39.8943 33.3854 40.147C33.1541 40.3638 33.1976 40.6503 33.2569 41.0024C33.3083 41.3068 33.3439 41.6788 33.4032 41.9851C33.4704 42.3253 33.5989 43.0812 33.6899 43.3796C33.8124 43.7894 33.9627 43.7377 34.53 43.5865L36.0463 43.1389L36.072 43.5328C36.072 44.4101 36.0483 45.2177 35.56 45.9637C35.2674 46.4093 34.7772 46.8987 34.19 46.8987C33.6938 46.8987 33.3558 46.8688 32.9169 46.4968C32.7983 46.3954 32.6915 46.282 32.5986 46.1587C32.5472 46.089 32.5077 46.0333 32.4602 45.9577C31.881 45.0248 31.4896 42.568 31.2938 41.4002C31.0705 40.0714 30.7087 36.2639 31.9897 35.4025C32.5393 35.0345 33.332 34.9569 33.8698 35.3627C34.8365 36.0888 34.1841 37.5987 36.25 37.0855C36.7086 36.9721 37.1218 36.8547 37.5686 36.6776C37.786 36.5921 37.9837 36.5304 38.1992 36.4449C39.2074 36.045 38.4503 34.386 38.0727 33.7355C37.784 33.2401 37.5231 32.9139 37.1376 32.522C36.4654 31.8377 35.1982 31.2528 34.0872 31.2528H33.5653C32.6105 31.2528 31.4935 31.6646 30.8471 31.9889C30.1156 32.3549 29.4296 32.8801 28.8543 33.455C28.7041 33.6042 28.5914 33.7574 28.4491 33.9145L28.0814 34.4118C27.9647 34.5889 27.854 34.752 27.7532 34.9489C27.4132 35.6233 27.2175 36.1306 27.1107 36.9044C27.0771 37.1412 27.0435 37.4475 27.0316 37.6922L27.0059 38.5595L27 38.5635Z" fill="#515662"/>
<mask id="mask1_85_883" style="mask-type:luminance" maskUnits="userSpaceOnUse" x="27" y="25" width="53" height="26">
<path d="M67.3448 42.9022C67.3448 43.869 67.4832 44.1873 68.6515 44.1912C68.8275 44.1912 68.9224 44.2191 69.122 44.2171C69.4502 44.2171 69.7349 44.243 70.0887 44.243C71.2828 44.243 72.459 44.1674 73.5167 44.0381C74.0682 43.9704 74.5882 43.8909 75.0804 43.7715C75.8198 43.5905 76.4069 43.4015 76.9703 42.938C77.0554 42.8684 77.1404 42.8107 77.2175 42.739C77.8264 42.1721 78.2118 41.5992 78.5479 40.8432C78.6448 40.6264 78.7239 40.4056 78.795 40.1729C79.3703 38.283 79.0501 36.0013 77.4784 34.7063C77.3895 34.6326 77.1443 34.4357 77.0395 34.4118C77.0712 34.2945 77.3005 34.1652 77.4389 34.0239C77.7433 33.7136 77.8422 33.6818 78.2336 33.2202C78.799 32.5538 79.2339 31.223 79.2339 30.1786C79.2339 29.2755 79.1706 28.8577 78.8919 28.0779C78.7515 27.684 78.4115 27.0474 78.1051 26.7391C77.8283 26.4606 77.8857 26.4884 77.5694 26.2278C76.9605 25.7246 76.0867 25.45 75.2485 25.3287C74.6435 25.2412 73.8626 25.2332 73.2241 25.2869H71.1088C70.3872 25.2869 69.7309 25.2988 69.1042 25.4003C68.44 25.5077 68.4439 26.1164 68.3629 26.8107C68.3135 27.2384 68.185 28.3743 68.183 28.7582C68.183 28.8875 68.1652 28.8955 68.1573 28.995C68.1514 29.0785 68.1612 29.17 68.1553 29.2556C68.1454 29.3789 68.1415 29.6116 68.1237 29.7489C68.0822 30.0612 68.1059 30.4352 68.0762 30.7794L67.9991 32.2793C67.9892 32.4603 68.0169 32.6473 67.9912 32.8244L67.9201 34.3561C67.924 34.6983 67.8528 35.4741 67.843 35.8819L67.5919 39.3891C67.5662 39.5701 67.5701 39.6914 67.5504 39.8725L67.3725 41.8498C67.3586 42.0289 67.3725 42.1999 67.3527 42.3551C67.3309 42.5143 67.3448 42.7331 67.3448 42.9002M72.8584 40.5608C72.3997 40.5608 71.9846 40.4812 71.5259 40.4812C71.5259 39.962 71.6347 38.9196 71.6307 38.4302C71.6268 37.9309 71.7355 36.8686 71.7355 36.3534C72.374 36.3534 72.9829 36.3793 73.6155 36.433C74.1098 36.4747 74.687 36.6219 74.9381 37.0477C75.5351 38.0562 75.1615 39.8168 73.8429 40.3419C73.572 40.4494 73.2182 40.5588 72.8564 40.5588L72.8584 40.5608ZM71.8403 32.8303C71.8936 32.6016 71.9016 31.2588 71.949 30.8351L72.0004 29.8364C72.034 29.5301 72.0478 29.1521 72.0478 28.808C73.0126 28.808 73.8192 28.6628 74.4577 29.0646C75.114 29.4784 75.3097 30.1169 75.2326 30.9067C75.1931 31.3085 74.8926 32.0724 74.6356 32.2793C74.3944 32.4743 74.0959 32.6652 73.7895 32.7687C73.4613 32.8801 72.2396 32.8303 71.8383 32.8303H71.8403ZM54.0204 44.7423C54.0204 45.6494 54.7103 45.5579 55.4319 45.5579C55.9973 45.5579 57.2586 45.345 57.4978 44.8218C57.6678 44.4479 57.8497 42.9002 57.9169 42.4029C58.0513 41.4082 58.0553 41.5196 58.4111 41.4818L62.1475 40.9825C62.1929 41.08 62.527 43.0593 62.5607 43.3C62.62 43.7297 62.7129 44.3464 63.1142 44.5573C63.47 44.7443 65.0871 44.4976 65.5517 44.4061C65.7731 44.3623 66.1072 44.3166 66.2515 44.2171C66.4473 44.0798 66.554 43.8013 66.5323 43.5925L63.5906 31.0101C63.5313 30.7535 63.474 30.5307 63.4167 30.2641C63.213 29.3212 62.9185 28.2171 62.7326 27.2961C62.529 26.2816 62.5587 25.5137 60.7063 25.8857C60.1982 25.9871 59.6763 26.0409 59.1564 26.1403C58.767 26.2139 57.9307 26.3392 57.6777 26.4944C57.4306 26.6456 57.3792 26.7689 57.3218 27.0315L56.8158 29.2834C56.1831 32.331 55.592 35.3667 54.9871 38.4083C54.7835 39.4308 54.6075 40.4514 54.4316 41.5057L54.0995 43.9068C54.0698 44.1833 54.0164 44.4618 54.0164 44.7443L54.0204 44.7423ZM58.8025 38.0901C58.8045 37.9727 58.8441 37.8275 58.8658 37.7061L59.3502 34.933C59.4352 34.4098 59.5459 33.8628 59.6309 33.3476C59.6763 33.075 59.7258 32.8323 59.7693 32.5658C59.791 32.4345 59.8207 32.2873 59.8404 32.1639C59.8661 32.0107 59.8997 31.9113 59.8997 31.7501H59.9511C59.9511 31.8854 60.8783 36.0092 60.9238 36.1883L61.2579 37.6663C61.0819 37.6803 60.8289 37.7379 60.6529 37.7678L58.8006 38.0861L58.8025 38.0901ZM40.5122 30.5705C40.5122 31.1792 40.6644 32.1798 40.7553 32.7965C40.8403 33.3794 40.872 34.4834 40.9491 35.0723L41.0855 36.7751C41.129 37.6584 41.2733 38.7525 41.3227 39.6397C41.3583 40.2723 41.4967 41.2749 41.5303 41.9016C41.5718 42.6615 41.6884 43.4174 41.7398 44.1634L41.898 45.8443C41.898 46.3337 41.8466 47.205 42.0799 47.5293C42.4733 48.0783 43.4341 47.8754 44.0291 47.7799C44.7032 47.6705 45.3536 47.6566 45.7134 47.1076C46.1483 46.4471 45.9447 45.3172 45.8222 44.5792L45.4288 41.9791C45.3675 41.5375 45.2963 41.1078 45.2963 40.6125C45.4367 40.5787 45.4802 40.5289 45.7668 40.4812L46.4212 40.4295C46.524 40.4295 46.8304 41.1019 46.8917 41.2192L47.3286 42.0428C47.4768 42.3193 47.5935 42.6217 47.7496 42.8803L48.1826 43.7078C48.2656 43.873 49.3608 45.9398 49.5387 46.1308C50.0567 46.6878 50.6695 46.5565 51.3456 46.3835L52.4942 46.0413C52.86 45.916 53.1624 45.5678 53.1624 45.1103C53.1624 44.8099 52.943 44.5115 52.8323 44.2867C52.6959 44.0102 52.5654 43.7735 52.431 43.5069L50.8376 40.4315C50.7407 40.2365 50.0646 39.0012 50.0527 38.8798C50.3078 38.8201 50.8435 38.281 51.0155 38.0622C51.7628 37.1113 52.1601 36.057 52.2946 34.8276C52.3301 34.4994 52.3657 33.9961 52.3282 33.6718C52.3163 33.5684 52.3321 33.4649 52.3222 33.3615C52.2254 32.152 51.8161 30.7774 51.061 29.8444C51.0076 29.7787 50.976 29.731 50.9186 29.6713C50.628 29.3709 50.6913 29.3869 50.2742 29.0586C49.6811 28.5931 48.7974 28.2331 47.9078 28.2331C47.2732 28.2331 47.1546 28.251 46.524 28.3405C45.0136 28.5513 43.1276 28.979 41.6469 29.3491C41.3543 29.4227 41.0242 29.538 40.7909 29.6713C40.6347 29.7608 40.6051 29.8444 40.5715 30.0294C40.5458 30.1766 40.5122 30.4233 40.5122 30.5745V30.5705ZM44.8752 32.4106C45.1026 32.4106 45.3556 32.3589 45.577 32.327C46.2689 32.2296 47.5757 32.0844 47.9592 32.8303C48.317 33.5246 48.3131 34.8077 48.0857 35.5895C47.8386 36.435 47.2574 36.6259 46.3856 36.7711C45.9645 36.8408 45.5513 36.8945 45.1619 36.986L44.8752 32.4106ZM27 38.5635C27 38.9574 27.0198 39.2697 27.0257 39.6696L27.1048 40.7478C27.1898 42.4725 27.7789 45.8026 28.457 47.3801C28.5202 47.5253 28.5716 47.6347 28.6329 47.7819C28.8405 48.2872 29.4395 49.1008 29.8468 49.4271C30.0622 49.6002 30.2481 49.7573 30.4952 49.9045C32.7746 51.2712 35.7577 50.6803 37.7643 49.0511C38.0865 48.7885 38.4107 48.4483 38.6598 48.1122C38.9445 47.7282 39.2193 47.2707 39.4031 46.8092C39.5652 46.4033 39.674 46.0214 39.7689 45.5479C39.842 45.1819 39.8717 44.8199 39.8835 44.428C39.8875 44.2867 39.9112 44.2091 39.9112 44.0341L39.8598 42.9817C39.8558 42.6555 39.7906 42.2716 39.755 41.9553C39.6621 41.1277 39.5554 39.8764 39.2331 39.1424C38.9504 38.4998 38.2368 38.6093 37.6239 38.7843C37.0842 38.9395 36.4575 39.0608 35.8506 39.2359C35.5482 39.3234 35.2694 39.4289 34.9946 39.5044C34.5518 39.6278 33.6543 39.8943 33.3854 40.147C33.1541 40.3638 33.1976 40.6503 33.2569 41.0024C33.3083 41.3068 33.3439 41.6788 33.4032 41.9851C33.4704 42.3253 33.5989 43.0812 33.6899 43.3796C33.8124 43.7894 33.9627 43.7377 34.53 43.5865L36.0463 43.1389L36.072 43.5328C36.072 44.4101 36.0483 45.2177 35.56 45.9637C35.2674 46.4093 34.7772 46.8987 34.19 46.8987C33.6938 46.8987 33.3558 46.8688 32.9169 46.4968C32.7983 46.3954 32.6915 46.282 32.5986 46.1587C32.5472 46.089 32.5077 46.0333 32.4602 45.9577C31.881 45.0248 31.4896 42.568 31.2938 41.4002C31.0705 40.0714 30.7087 36.2639 31.9897 35.4025C32.5393 35.0345 33.332 34.9569 33.8698 35.3627C34.8365 36.0888 34.1841 37.5987 36.25 37.0855C36.7086 36.9721 37.1218 36.8547 37.5686 36.6776C37.786 36.5921 37.9837 36.5304 38.1992 36.4449C39.2074 36.045 38.4503 34.386 38.0727 33.7355C37.784 33.2401 37.5231 32.9139 37.1376 32.522C36.4654 31.8377 35.1982 31.2528 34.0872 31.2528H33.5653C32.6105 31.2528 31.4935 31.6646 30.8471 31.9889C30.1156 32.3549 29.4296 32.8801 28.8543 33.455C28.7041 33.6042 28.5914 33.7574 28.4491 33.9145L28.0814 34.4118C27.9647 34.5889 27.854 34.752 27.7532 34.9489C27.4132 35.6233 27.2175 36.1306 27.1107 36.9044C27.0771 37.1412 27.0435 37.4475 27.0316 37.6922L27.0059 38.5595L27 38.5635Z" fill="white"/>
</mask>
<g mask="url(#mask1_85_883)">
<path d="M79.3683 25.2292H27V51.2711H79.3683V25.2292Z" fill="#515662"/>
</g>
<path fill-rule="evenodd" clip-rule="evenodd" d="M65.3164 51.7267C65.3164 52.5841 66.2969 52.0729 66.5164 52.0729C66.4788 52.236 66.2396 52.6657 66.0874 53.2804C65.8126 54.3964 65.8106 54.7604 65.091 55.6436L64.2963 56.5269C64.152 56.6542 63.7111 57.0123 63.5174 56.9805C63.1418 56.9168 63.5154 55.5283 63.5846 55.2935C63.7131 54.8579 63.8831 54.4779 64.0353 54.0641C64.3378 53.2386 64.6778 52.8188 64.2567 52.4488C63.4284 51.7207 62.9302 53.5231 62.7049 54.1517C62.5072 54.7087 62.1415 56.0853 62.1415 56.6065C62.1415 57.9473 63.3118 58.6535 64.7826 57.5375C65.0396 57.3425 65.5081 56.8611 65.6584 56.8213C65.6584 57.0998 65.8185 57.4141 65.951 57.5633C66.9098 58.6435 69.5608 56.5667 69.5608 55.4407C69.5608 55.3234 69.2366 54.5694 68.5605 55.385C68.4715 55.4925 68.434 55.5163 68.341 55.6377C68.1295 55.9122 67.9338 56.1847 67.6551 56.3717C66.7477 56.9785 66.633 56.5726 66.7378 55.578C66.8366 54.645 67.3565 53.0615 67.6728 52.2479C67.8488 51.7943 67.8903 51.7128 68.3648 51.5616C69.0428 51.3448 69.9819 51.2115 70.6481 51.0126C70.996 50.9091 71.4468 50.8116 71.4468 50.3919C71.4468 49.5643 70.482 49.9145 69.7743 50.0895L68.6158 50.4357C68.685 50.1392 69.4283 49.1167 68.9242 48.7885C67.9812 48.1738 67.5621 49.9503 67.2478 50.4834C67.1272 50.6883 67.0897 50.7559 66.8346 50.8435C66.6053 50.921 66.4195 50.9509 66.1763 51.0006C65.7671 51.0842 65.3164 51.2413 65.3164 51.7307M57.296 50.8673C58.0275 50.8673 58.3814 50.3621 58.9685 50.3501C58.8796 50.5192 58.7847 50.7679 58.7115 50.9549C58.6285 51.1637 58.5534 51.3527 58.4664 51.5715C58.245 52.1305 58.1837 52.2777 58.0334 52.8626C57.9385 53.2326 57.7923 53.913 57.5372 54.088C57.128 54.3705 56.6101 54.269 56.6101 54.9673C56.6101 55.3592 56.9283 55.576 57.296 55.399C57.2802 55.5899 56.9264 56.6681 56.8394 56.9665C56.703 57.44 56.3392 58.6694 56.6358 59.2125C56.7761 59.4711 57.3672 59.7894 57.731 58.6833C57.8516 58.3193 57.9465 57.8896 58.0295 57.4718C58.1422 56.9088 58.4051 55.389 58.6483 55.0309C58.8064 54.8002 59.3323 54.6231 59.6387 54.5177C60.3128 54.2869 62.0307 53.8254 62.3905 53.4892C62.8512 53.0576 62.6278 52.5921 62.2284 52.5921C61.58 52.5921 59.6446 53.4554 59.1405 53.4992C59.1464 53.2744 59.3481 52.6318 59.4232 52.4031L60.1626 50.3839C60.4413 49.6936 60.3128 49.8568 60.813 49.6578L62.9243 49.0213C63.725 48.8323 64.8874 48.8601 64.8874 48.2335C64.8874 48.0405 64.8043 47.8038 64.6462 47.7421C64.405 47.6506 64.2073 47.7004 63.9879 47.7123C63.4838 47.7402 63.0627 47.8217 62.6495 47.9212C61.1906 48.2713 60.5204 48.5001 59.1148 48.9815C58.5929 49.1605 57.3198 49.6379 57.0054 49.9662C56.697 50.2884 56.8868 50.8634 57.298 50.8634L57.296 50.8673ZM79.5976 50.3501C79.5976 51.0583 79.7063 51.3487 80.1412 51.8739C81.2483 53.2068 84.5221 54.0741 82.0351 55.954C81.1989 56.5866 79.7241 56.8372 79.7241 56.133C79.7241 55.6934 80.0681 55.4507 80.0681 54.8817C80.0681 54.6072 79.3149 54.2312 78.8226 55.1821C77.595 57.5574 80.7639 58.5739 82.9702 56.7656C83.585 56.2623 84.184 55.5263 84.184 54.6211C84.184 53.0178 82.6044 52.5145 81.5863 51.7128C79.477 50.0497 82.3811 48.4086 83.2845 48.4086C83.5277 48.4086 83.7333 48.4046 83.9151 48.5936C84.6604 49.3674 82.7409 51.0842 84.099 51.0842C85.4571 51.0842 86.1154 47.201 83.4565 47.201C82.385 47.201 81.9145 47.4756 81.098 48.0644C80.6611 48.3787 79.9593 49.0988 79.7439 49.636C79.6608 49.8409 79.5976 50.0855 79.5976 50.3521V50.3501ZM72.9077 56.0892C72.0161 56.0892 73.3248 54.3526 73.7657 54.2332C73.9337 54.5535 74.2065 54.9215 74.4082 55.2259C74.3726 55.2756 74.1789 55.4407 74.1156 55.4925C74.0069 55.58 73.8764 55.6556 73.7578 55.7352C73.5601 55.8684 73.2181 56.0892 72.9077 56.0892ZM74.2362 52.4647C74.2362 51.86 74.2283 51.2214 74.764 50.9668C75.794 50.4774 74.6652 52.3494 74.2362 52.4647ZM71.4922 55.7869C71.4922 56.2007 71.5634 56.5508 71.8777 56.8233C72.4906 57.3544 73.5028 57.1794 74.1176 56.7895C74.3864 56.6184 74.9123 56.1529 75.1812 56.0892C75.454 56.2723 75.7999 56.9088 76.2526 56.9088C76.4701 56.9088 76.8536 56.7636 76.8536 56.4772C76.8536 56.1072 76.1281 55.5203 75.9106 55.2697C76.2566 54.6112 77.0256 54.4521 77.0256 53.5429C77.0256 53.2943 76.6994 52.6617 75.8612 53.71C75.6872 53.9269 75.4243 54.3407 75.1377 54.4063C74.9953 54.3108 74.8688 54.0303 74.7759 53.8632C74.7166 53.7558 74.7126 53.726 74.6652 53.6285C75.2069 53.2644 76.3376 51.8421 76.3376 51.0384C76.3376 49.7911 74.6474 49.1346 73.6589 50.4575C72.4214 52.1166 73.5403 52.9959 73.0698 53.4475L72.2296 54.1557C71.8678 54.4958 71.4922 55.2418 71.4922 55.7869ZM87.7029 62.7355C87.0268 62.7355 86.8449 62.5684 86.8449 61.7866C86.8449 61.2435 87.1098 60.6567 87.3134 60.3165C88.0429 59.0971 89.2469 59.3159 89.2469 60.406C89.2469 61.3231 88.7704 62.7355 87.7029 62.7355ZM92.4198 60.4916C92.4198 60.235 92.4475 60.0261 92.487 59.7814C92.5305 59.4969 92.5819 59.3418 92.6353 59.111C92.8883 59.111 93.7503 59.0294 93.7503 59.4134C93.7503 59.7973 93.6435 59.9923 93.2738 60.2708C92.8527 60.589 92.6906 60.4975 92.4218 60.4916H92.4198ZM91.1328 63.382C92.0363 63.382 91.9374 62.6778 92.2043 61.526C92.3822 61.5738 92.402 61.6891 92.5621 61.9855C93.6198 63.943 94.3058 63.0598 94.3058 62.6917C94.3058 62.4292 93.9954 62.0651 93.859 61.8901C93.6514 61.6255 93.4834 61.4922 93.3193 61.1819C93.6534 61.154 94.0745 60.8914 94.2544 60.6985C94.4877 60.4478 94.6794 60.1275 94.7526 59.7774C94.8455 59.3418 94.796 58.9797 94.5825 58.6614C94.1397 58.0049 92.8152 58.1939 92.1509 58.3232C91.6626 58.4187 91.6844 58.4764 91.4729 59.5387C91.4215 59.7973 91.3661 60.0619 91.3048 60.3185L90.8778 62.7375C90.8699 62.8767 90.8442 63.0797 90.8561 63.1493C90.8857 63.3243 90.9727 63.384 91.1328 63.384V63.382ZM95.7647 63.0359C96.0257 63.0359 96.3025 62.9762 96.5654 62.9364C97.8583 62.7395 98.5087 63.0916 98.5087 61.9577C98.5087 61.8125 98.3406 61.6931 98.1924 61.6712L96.4487 61.7866C96.4725 61.4942 96.597 61.1301 96.6207 60.8377C97.629 60.8377 98.5502 60.9531 98.5502 60.0619C98.5502 59.5944 97.2237 59.8888 96.8342 59.8888C96.9113 59.5546 96.9726 59.1846 97.0477 58.8524C98.4711 58.8524 99.0642 58.9797 99.0642 58.0328C99.0642 57.5116 97.7021 57.8677 97.0893 57.9015C95.9466 57.9652 96.1166 58.1999 95.8814 59.1448C95.7865 59.5248 95.146 62.4331 95.3496 62.8031C95.4128 62.9165 95.6204 63.0359 95.7608 63.0359H95.7647ZM78.7811 63.5113C78.2592 63.5113 77.7076 62.8529 77.3992 63.199C77.1086 63.5253 77.0315 64.504 78.7376 64.504C79.2753 64.504 79.7696 64.2414 80.074 63.9927C81.0486 63.195 81.0466 62.1148 80.0246 61.6116C79.2437 61.2256 78.6605 60.9909 79.2397 60.4777C79.7656 60.0141 80.2618 60.6627 80.7106 60.6627C81.4223 60.6627 81.4064 59.2821 80.1096 59.2821C78.5281 59.2821 76.9426 60.9352 78.4786 62.0452C79.0361 62.449 79.8882 62.5386 79.5521 63.1234C79.4434 63.3124 79.0836 63.5113 78.7791 63.5113H78.7811ZM82.126 60.3185C82.5867 60.3185 82.7824 60.1972 83.1125 60.1892L82.6084 62.7892C82.5768 62.9484 82.5491 63.0956 82.5234 63.2209C82.4483 63.5989 82.2091 64.0723 82.897 64.0723C83.067 64.0723 83.2865 64.0027 83.3972 63.9271C83.5593 63.8157 83.5593 63.7142 83.6028 63.4855C83.7787 62.5545 84.0338 60.9392 84.2275 60.1017C85.042 60.1017 85.815 60.0897 85.815 59.3258C85.815 59.0533 85.554 58.9797 85.301 58.9797C84.4153 58.9797 83.6344 59.0812 82.818 59.1568C82.2842 59.2065 81.5903 59.4114 81.7287 60.0301C81.7682 60.2071 81.9382 60.3185 82.128 60.3185H82.126ZM93.6633 54.3625C93.3569 54.3625 93.3193 54.3705 93.3193 54.0602C93.3193 53.4773 93.9756 52.4807 94.373 51.9694C94.7427 51.494 95.5789 50.6505 96.2352 50.6505C96.5614 50.6505 96.7077 50.6963 96.7077 51.0822C96.7077 51.7406 95.6521 52.9442 95.1084 53.3997C95.0135 53.4793 94.9918 53.4793 94.8949 53.5728C94.6596 53.8035 93.9737 54.3605 93.6633 54.3605V54.3625ZM107.508 50.3561L107.6 50.2208C107.626 50.1751 107.644 50.1333 107.672 50.0756C107.727 49.9622 107.765 49.8866 107.814 49.7871L109.273 46.9385C109.322 46.839 109.36 46.7614 109.417 46.65C109.617 46.2661 109.394 45.9458 108.972 45.9458C108.528 45.9458 108.186 46.5963 107.994 46.9027C107.48 47.7222 107.009 48.5995 106.614 49.4848C106.009 50.8375 105.946 50.9012 105.017 51.8481C104.58 52.2937 103.91 52.8387 103.415 53.2147C102.812 53.6742 102.207 54.1457 101.338 54.1457C99.9242 54.1457 101.312 50.9748 102.941 49.9761C103.947 49.3594 103.311 50.8315 103.311 50.9091C103.311 51.2095 103.558 51.3846 103.825 51.3846C104.277 51.3846 104.639 50.6226 104.639 50.1333C104.639 49.7175 104.605 49.3037 104.273 49.0332C103.696 48.5637 102.838 48.7547 102.251 49.067C101.927 49.2401 101.723 49.4629 101.476 49.7115C101.006 50.185 100.616 50.7201 100.246 51.2811C99.6039 52.2559 99.0128 53.3201 97.9888 53.9289C97.7614 54.0641 97.7416 54.0602 97.3898 54.0602C97.3522 53.901 97.3047 53.8393 97.3047 53.6722C97.3047 52.1425 99.1393 50.3203 98.1469 50.1472C97.9868 50.1194 97.7851 50.2188 97.5617 50.2188C97.457 49.7672 96.8777 49.443 96.3183 49.443C95.0926 49.443 93.6099 50.8037 93.003 51.8461C92.744 52.2917 92.4692 52.7492 92.1589 53.155C91.6528 53.8175 90.8501 54.5794 89.9704 54.5794C89.9447 54.2611 89.9586 53.9766 90.0515 53.6683C90.1404 53.3659 90.2136 53.1033 90.3203 52.8168C90.5556 52.1862 90.7869 51.5258 90.7869 50.7818C90.7869 49.7653 89.1026 49.9383 87.9382 51.4542L86.9695 52.5503C86.9754 52.3195 87.1553 51.9515 87.2383 51.7426C87.349 51.4641 87.4835 51.1259 87.4835 50.7798C87.4835 50.3243 86.6927 49.8886 86.2459 51.0881L85.5718 52.9123C85.4512 53.2266 85.3504 53.527 85.2476 53.8374C85.042 54.458 84.787 55.0906 84.6446 55.7371C84.5655 56.1012 84.8225 56.3876 85.21 56.3876C85.6924 56.3876 86.7382 54.6928 87.0169 54.3228L87.9836 53.0516C88.0746 52.9422 88.1497 52.8546 88.2367 52.7452L88.889 52.0211C89.0432 51.8719 89.1757 51.7466 89.3694 51.6412C89.3556 51.7963 89.2429 52.1624 89.1974 52.3315L88.81 53.712C88.5925 54.5555 88.6182 55.7411 89.7549 55.7411C90.6307 55.7411 91.3463 55.401 91.9513 54.8439C92.064 54.7405 92.0442 54.7027 92.1984 54.6609C92.2162 54.8658 92.4435 55.1602 92.572 55.2776C93.26 55.8943 94.3196 55.3512 94.8988 54.9633C95.4089 54.6231 95.8359 54.1198 96.0573 53.9706C96.1364 54.1377 96.1917 54.3586 96.2708 54.5316C96.3539 54.7107 96.4606 54.838 96.6029 54.9752C96.9113 55.2736 97.2909 55.3711 97.7792 55.2299C98.1726 55.1165 98.5285 54.8977 98.8072 54.6689C98.9476 54.5535 99.0919 54.4361 99.2204 54.3068C99.3766 54.1497 99.4477 53.9985 99.6158 53.8851C99.6158 54.5595 100.32 55.2657 100.988 55.2657C102.047 55.2657 102.496 55.027 103.332 54.5197C103.878 54.1895 104.323 53.72 104.847 53.3679C104.847 53.8871 104.503 54.1278 104.503 54.6629C104.503 55.0031 104.908 55.3234 105.246 55.1543C105.633 54.9593 106.049 53.8413 106.296 53.4455C106.397 53.2843 106.778 52.7631 106.905 52.6776C106.905 53.2963 107.181 53.9965 107.444 54.3785C108.417 55.7948 110.489 54.9414 111.61 54.2611C111.742 54.1815 111.79 54.1338 111.914 54.0482C112.128 53.905 112.254 53.7996 112.452 53.6384C112.859 53.3082 114.168 52.2061 113.666 51.6133C113.268 51.1458 112.689 51.8819 112.428 52.1465C111.529 53.0635 108.717 55.4765 108.15 53.0198C108.472 53.0198 109.01 52.797 109.222 52.6736C111.863 51.1259 111.404 49.0511 110.123 49.0511C109.645 49.0511 109.03 49.3674 108.694 49.5544C108.478 49.6757 107.652 50.2367 107.549 50.3879L107.5 50.3521L107.508 50.3561ZM107.6 51.9455C107.678 51.6511 108.188 51.2871 108.34 51.1379C108.719 50.7659 110.736 49.2461 109.813 50.8077C109.566 51.2254 109.038 51.6392 108.587 51.8182C108.223 51.9634 108.097 51.9475 107.6 51.9475V51.9455ZM85.7715 61.8284C85.7715 64.502 88.5194 63.9908 89.4426 62.8031C90.8126 61.0386 90.6267 58.5063 88.6894 58.5063C86.9418 58.5063 85.7734 60.404 85.7734 61.8284H85.7715ZM64.0709 50.9966C64.0709 51.2493 64.1381 51.4283 64.4564 51.4283C65.1938 51.4283 65.3144 50.6823 65.0831 50.4098C64.8439 50.1293 64.4861 50.3362 64.3358 50.4874C64.2429 50.5809 64.0689 50.8275 64.0689 50.9966H64.0709Z" fill="#515662"/>
</g>
<defs>
<clipPath id="clip0_85_883">
<rect width="100" height="45" fill="white" transform="translate(27 19.5)"/>
</clipPath>
</defs>
</svg>
