<svg width="311" height="68" viewBox="0 0 311 68" fill="none" xmlns="http://www.w3.org/2000/svg">
<path d="M310.546 7.0499C310.275 6.74609 309.92 6.59277 309.481 6.59277C309.042 6.59277 308.67 6.74467 308.367 7.0499C308.095 7.3537 307.959 7.70861 307.959 8.11462V23.2281C307.959 24.5128 307.572 25.7295 306.795 26.8794C306.017 27.9952 305.018 28.908 303.801 29.6178C302.584 30.2936 301.247 30.6315 299.793 30.6315C297.46 30.6315 295.772 29.9884 294.722 28.7036C293.706 27.4188 293.199 25.5932 293.199 23.2266V8.11462C293.199 7.70861 293.049 7.3537 292.742 7.0499C292.472 6.74609 292.116 6.59277 291.679 6.59277C291.205 6.59277 290.833 6.74467 290.562 7.0499C290.292 7.3537 290.156 7.70861 290.156 8.11462V23.6852C290.156 25.6457 290.476 27.3535 291.119 28.8072C291.763 30.2609 292.741 31.4108 294.061 32.2555C295.414 33.0676 297.105 33.4722 299.133 33.4722C300.486 33.4722 301.754 33.2521 302.935 32.8134C304.153 32.3407 305.216 31.6976 306.131 30.8856C306.876 30.2467 307.482 29.5341 307.955 28.749V30.5307C307.955 32.5593 307.584 34.3012 306.841 35.7549C306.097 37.2427 305.03 38.3756 303.645 39.1535C302.292 39.9315 300.688 40.3205 298.827 40.3205C297.443 40.3205 296.206 40.1004 295.126 39.6618C294.042 39.2217 293.215 38.8497 292.638 38.5459C292.268 38.377 291.895 38.36 291.524 38.4948C291.185 38.6638 290.933 38.9846 290.763 39.4588C290.594 39.8307 290.613 40.1856 290.814 40.5235C291.016 40.8614 291.321 41.1495 291.727 41.3852C292.505 41.892 293.502 42.298 294.721 42.6018C295.972 42.9397 297.325 43.1086 298.778 43.1086C301.112 43.1086 303.191 42.6189 305.016 41.6379C306.843 40.691 308.297 39.2714 309.379 37.3776C310.462 35.5179 311 33.218 311 30.4796V8.11462C311 7.70861 310.85 7.3537 310.544 7.0499H310.546Z" fill="#ECE7E1"/>
<path d="M281.962 28.2495C281.759 27.9783 281.438 27.8434 281 27.8434C280.525 27.8434 280.136 28.0294 279.833 28.4014C279.561 28.7392 279.106 29.0941 278.463 29.4661C277.922 29.7699 277.279 30.041 276.535 30.2781C275.791 30.5152 274.743 30.633 273.39 30.633C271.396 30.633 269.655 30.1759 268.167 29.2631C266.68 28.3162 265.513 27.0314 264.667 25.4088C263.821 23.7861 263.399 21.9605 263.399 19.9318C263.399 17.9031 263.839 16.1442 264.719 14.5556C265.597 12.933 266.799 11.6482 268.319 10.7013C269.843 9.75444 271.55 9.2817 273.444 9.2817C274.492 9.2817 275.422 9.36688 276.232 9.53582C277.043 9.70475 277.669 9.89072 278.109 10.0937C278.583 10.3308 278.937 10.5835 279.174 10.8547C279.444 11.1258 279.698 11.3615 279.935 11.5645C280.205 11.7675 280.542 11.8683 280.948 11.8683C281.354 11.8683 281.675 11.7164 281.912 11.4112C282.149 11.0733 282.266 10.7354 282.266 10.3961C282.266 9.6863 281.843 9.02617 281 8.41856C280.186 7.80954 279.106 7.3368 277.751 6.99893C276.399 6.62698 274.914 6.44101 273.29 6.44101C270.721 6.44101 268.454 7.06707 266.494 8.31777C264.566 9.5344 263.062 11.1585 261.979 13.1871C260.896 15.2158 260.355 17.4645 260.355 19.9332C260.355 22.402 260.879 24.8196 261.927 26.8809C263.01 28.9096 264.498 30.5152 266.392 31.6992C268.318 32.8831 270.55 33.4737 273.087 33.4737C274.878 33.4737 276.468 33.2366 277.855 32.7639C279.239 32.2571 280.322 31.6821 281.1 31.039C281.911 30.3633 282.317 29.7543 282.317 29.2134C282.317 28.8074 282.198 28.4865 281.961 28.2495H281.962Z" fill="#ECE7E1"/>
<path d="M250.967 11.4623C250.39 9.90634 249.426 8.68971 248.075 7.81096C246.757 6.89813 244.981 6.44101 242.75 6.44101C241.533 6.44101 240.315 6.67809 239.098 7.15083C237.914 7.59091 236.834 8.21555 235.853 9.02759C234.947 9.74592 234.188 10.5651 233.572 11.485V8.72378C233.572 8.31777 233.418 7.96286 233.115 7.65906C232.845 7.35526 232.489 7.20193 232.05 7.20193C231.611 7.20193 231.239 7.35384 230.936 7.65906C230.664 7.96286 230.53 8.31777 230.53 8.72378V31.4451C230.53 31.8511 230.663 32.206 230.936 32.5098C231.205 32.8136 231.579 32.9655 232.05 32.9655C232.456 32.9655 232.811 32.8136 233.115 32.5098C233.418 32.206 233.572 31.8511 233.572 31.4451V16.6865C233.572 15.3336 233.978 14.0999 234.788 12.9841C235.599 11.8683 236.648 10.9725 237.933 10.2967C239.25 9.62099 240.637 9.2817 242.091 9.2817C243.715 9.2817 245.018 9.61957 245.996 10.2967C247.013 10.9725 247.738 11.8697 248.177 12.9841C248.617 14.0999 248.837 15.3336 248.837 16.6865V31.4451C248.837 31.8511 248.973 32.206 249.243 32.5098C249.514 32.8136 249.886 32.9655 250.36 32.9655C250.766 32.9655 251.12 32.8136 251.424 32.5098C251.73 32.206 251.881 31.8511 251.881 31.4451V16.5346C251.881 14.6749 251.577 12.9841 250.968 11.4623H250.967Z" fill="#ECE7E1"/>
<path d="M221.476 19.5769C221.78 19.2731 221.95 18.9182 221.983 18.5122C221.916 16.5517 221.546 14.8268 220.868 13.339C220.225 11.8512 219.348 10.6005 218.231 9.5855C217.15 8.53781 215.897 7.75985 214.479 7.25304C213.092 6.71216 211.655 6.44101 210.167 6.44101C208.139 6.44101 206.211 6.99893 204.385 8.11476C202.593 9.19652 201.123 10.7524 199.973 12.7811C198.857 14.8098 198.299 17.2615 198.299 20.1348C198.299 22.8066 198.857 25.139 199.973 27.1336C201.089 29.1282 202.645 30.6841 204.639 31.8C206.634 32.9158 208.934 33.4737 211.537 33.4737C213.465 33.4737 215.24 33.0336 216.862 32.1549C218.486 31.242 219.804 30.1773 220.82 28.9593C221.157 28.6555 221.327 28.3006 221.327 27.8945C221.327 27.5567 221.191 27.2514 220.921 26.9817C220.684 26.7106 220.397 26.5757 220.058 26.5757C219.684 26.5757 219.314 26.7276 218.941 27.0328C218.468 27.6418 217.877 28.2324 217.166 28.8074C216.456 29.3483 215.629 29.7883 214.682 30.1262C213.735 30.4641 212.67 30.633 211.486 30.633C209.357 30.633 207.514 30.1603 205.958 29.2134C204.436 28.2665 203.271 26.9817 202.459 25.3591C201.654 23.7506 201.249 21.9576 201.242 19.9829H220.411C220.819 19.9829 221.172 19.848 221.476 19.5769ZM204.131 11.918C205.01 11.0392 205.974 10.3961 207.021 9.9901C208.103 9.58408 209.151 9.38108 210.166 9.38108C211.519 9.38108 212.821 9.66784 214.071 10.2428C215.322 10.8177 216.388 11.6624 217.265 12.7783C218.146 13.8941 218.652 15.247 218.789 16.8356V17.2416H201.471C201.605 16.5105 201.797 15.8319 202.051 15.2129C202.592 13.86 203.285 12.7612 204.131 11.9165V11.918Z" fill="#ECE7E1"/>
<path d="M190.362 7.50566C190.091 7.20186 189.719 7.04854 189.246 7.04854C188.806 7.04854 188.434 7.20044 188.13 7.50566C187.859 7.80946 187.724 8.18141 187.724 8.62149V11.8341C187.186 10.9199 186.444 10.0681 185.493 9.28021C184.546 8.43552 183.43 7.75836 182.145 7.25155C180.86 6.71066 179.456 6.43951 177.936 6.43951C175.603 6.43951 173.507 7.0315 171.647 8.21406C169.821 9.36396 168.351 10.9696 167.235 13.0323C166.153 15.061 165.612 17.3608 165.612 19.9303C165.612 22.4999 166.153 24.8494 167.235 26.878C168.351 28.9067 169.838 30.5123 171.698 31.6963C173.558 32.8802 175.655 33.4708 177.987 33.4708C179.069 33.4708 180.151 33.3019 181.234 32.964C182.35 32.6602 183.38 32.2031 184.327 31.594C185.274 30.9509 186.085 30.1744 186.762 29.2616C187.142 28.7732 187.462 28.2394 187.726 27.6645V30.7834C187.726 33.6241 186.881 35.9055 185.19 37.6303C183.534 39.3893 181.184 40.268 178.14 40.268C177.262 40.268 176.415 40.1828 175.605 40.0139C174.827 39.879 174.151 39.7101 173.576 39.5071C173.001 39.3041 172.546 39.1522 172.206 39.05C171.462 38.7462 170.904 38.492 170.533 38.289C170.161 38.1201 169.806 38.1542 169.468 38.3898C169.197 38.5928 169.045 38.8299 169.011 39.0997C169.011 39.4035 169.146 39.7087 169.417 40.0125C169.519 40.5193 170.026 41.0105 170.939 41.4832C171.885 41.956 173.001 42.3449 174.286 42.6502C175.605 42.954 176.856 43.1059 178.04 43.1059C180.474 43.1059 182.638 42.6161 184.532 41.6351C186.459 40.6882 187.98 39.2856 189.096 37.4259C190.212 35.5662 190.769 33.2834 190.769 30.579V8.62149C190.769 8.18141 190.635 7.80946 190.363 7.50566H190.362ZM186.711 25.5109C185.865 27.0995 184.716 28.3516 183.262 29.2644C181.809 30.1772 180.152 30.6344 178.292 30.6344C176.433 30.6344 174.759 30.1772 173.271 29.2644C171.817 28.3175 170.667 27.0328 169.823 25.4101C169.011 23.7875 168.606 21.9618 168.606 19.9332C168.606 17.9045 169.012 16.0959 169.823 14.5059C170.667 12.8832 171.817 11.6155 173.271 10.7027C174.759 9.75578 176.433 9.28304 178.292 9.28304C180.152 9.28304 181.809 9.74017 183.262 10.653C184.716 11.5317 185.866 12.7839 186.711 14.4065C187.555 15.9951 187.978 17.8378 187.978 19.9346C187.978 22.0314 187.555 23.8911 186.711 25.5137V25.5109Z" fill="#ECE7E1"/>
<path d="M156.664 7.50566C156.394 7.20186 156.038 7.04854 155.599 7.04854C155.16 7.04854 154.787 7.20044 154.483 7.50566C154.212 7.80946 154.077 8.18141 154.077 8.62149V11.8001C153.592 10.8645 152.95 10.0241 152.149 9.28021C151.202 8.40145 150.087 7.70725 148.802 7.20044C147.551 6.69363 146.198 6.43951 144.744 6.43951C142.479 6.43951 140.45 7.01447 138.658 8.16437C136.867 9.31428 135.446 10.9028 134.398 12.9315C133.349 14.9261 132.825 17.2429 132.825 19.8792C132.825 22.5155 133.332 24.7656 134.347 26.8269C135.395 28.8896 136.816 30.5123 138.607 31.6963C140.433 32.8802 142.496 33.4708 144.796 33.4708C146.215 33.4708 147.534 33.2167 148.752 32.7099C150.003 32.169 151.085 31.4762 151.999 30.6301C152.883 29.811 153.575 28.9294 154.079 27.9839V31.4421C154.079 31.8482 154.213 32.2031 154.485 32.5069C154.788 32.8107 155.16 32.9626 155.6 32.9626C156.006 32.9626 156.361 32.8107 156.665 32.5069C156.969 32.2031 157.122 31.8482 157.122 31.4421V8.62149C157.122 8.18141 156.97 7.80946 156.665 7.50566H156.664ZM149.817 29.2644C148.43 30.1772 146.841 30.6344 145.05 30.6344C143.258 30.6344 141.668 30.1772 140.283 29.2644C138.896 28.3175 137.797 27.0327 136.986 25.4101C136.208 23.7534 135.819 21.9107 135.819 19.882C135.819 17.8534 136.208 15.9937 136.986 14.4051C137.798 12.8165 138.897 11.5644 140.283 10.6516C141.702 9.73875 143.292 9.28162 145.05 9.28162C146.807 9.28162 148.431 9.75436 149.817 10.7013C151.202 11.6482 152.286 12.9159 153.062 14.5045C153.874 16.093 154.279 17.886 154.279 19.8806C154.279 21.8752 153.873 23.752 153.062 25.4087C152.284 27.0313 151.202 28.3161 149.817 29.263V29.2644Z" fill="#ECE7E1"/>
<path d="M92.437 13.2381C91.3893 11.2435 89.9683 9.68755 88.1767 8.57172C86.4178 7.42182 84.3891 6.84686 82.0907 6.84686C80.9408 6.84686 79.842 6.99876 78.7943 7.30399C77.7466 7.60779 76.7827 8.06491 75.9039 8.67393C75.0252 9.24889 74.2472 9.9587 73.5715 10.8048C73.2875 11.164 73.0348 11.5459 72.8105 11.9505V8.52203C72.8105 8.08195 72.6586 7.71 72.3534 7.4062C72.0823 7.1024 71.7274 6.94908 71.2887 6.94908C70.816 6.94908 70.4426 7.10098 70.1729 7.4062C69.9017 7.71 69.7668 8.08195 69.7668 8.52203V41.591C69.7668 41.997 69.9017 42.3519 70.1729 42.6558C70.4767 42.9596 70.8486 43.1129 71.2887 43.1129C71.7288 43.1129 72.0837 42.961 72.3534 42.6558C72.6572 42.3519 72.8105 41.997 72.8105 41.591V28.2266C73.0277 28.5659 73.2648 28.8966 73.5204 29.2161C74.1961 30.0281 74.9741 30.7379 75.8528 31.3469C76.7316 31.956 77.6955 32.4457 78.7432 32.8177C79.825 33.1555 80.9578 33.3245 82.1418 33.3245C84.3735 33.3245 86.3851 32.7495 88.1767 31.5996C89.9683 30.4497 91.3893 28.8782 92.437 26.8836C93.4847 24.889 94.0085 22.6062 94.0085 20.0367C94.0085 17.4672 93.4847 15.2014 92.437 13.2409V13.2381ZM89.8504 25.41C89.0384 26.9986 87.9396 28.2507 86.554 29.1635C85.2011 30.0423 83.6296 30.4824 81.838 30.4824C80.0464 30.4824 78.4067 30.0423 77.0198 29.1635C75.6328 28.2507 74.534 27 73.7234 25.41C72.9454 23.8214 72.5564 22.0284 72.5564 20.0339C72.5564 18.0393 72.9454 16.2307 73.7234 14.7088C74.5354 13.1529 75.6342 11.9363 77.0198 11.0575C78.4067 10.1447 80.0124 9.68755 81.838 9.68755C83.6637 9.68755 85.2025 10.1447 86.554 11.0575C87.941 11.9363 89.0398 13.1543 89.8504 14.7088C90.6625 16.2647 91.0671 18.0393 91.0671 20.0339C91.0671 22.0284 90.661 23.82 89.8504 25.41Z" fill="#ECE7E1"/>
<path d="M59.2975 7.50566C59.0264 7.20186 58.6714 7.04854 58.2328 7.04854C57.7941 7.04854 57.4207 7.20044 57.1169 7.50566C56.8458 7.80946 56.7109 8.18141 56.7109 8.62149V11.8001C56.2254 10.8645 55.5837 10.0227 54.7831 9.28021C53.8362 8.40145 52.7203 7.70725 51.4356 7.20044C50.1849 6.69363 48.832 6.43951 47.3782 6.43951C45.1125 6.43951 43.0838 7.01447 41.2923 8.16437C39.5007 9.31428 38.0796 10.9028 37.0319 12.9315C35.9842 14.9261 35.459 17.2429 35.459 19.8792C35.459 22.5155 35.9658 24.7656 36.9808 26.8269C38.0285 28.8896 39.4496 30.5123 41.2412 31.6963C43.0668 32.8802 45.1295 33.4708 47.4294 33.4708C48.849 33.4708 50.1678 33.2167 51.3859 32.7099C52.6366 32.169 53.7183 31.4762 54.6326 30.6301C55.517 29.811 56.2084 28.9294 56.7123 27.9839V31.4421C56.7123 31.8482 56.8472 32.2031 57.1184 32.5069C57.4222 32.8107 57.7941 32.9626 58.2342 32.9626C58.6402 32.9626 58.9951 32.8107 59.2989 32.5069C59.6027 32.2031 59.756 31.8482 59.756 31.4421V8.62149C59.756 8.18141 59.6041 7.80946 59.2989 7.50566H59.2975ZM52.4506 29.2644C51.0636 30.1772 49.475 30.6344 47.6835 30.6344C45.8919 30.6344 44.3019 30.1772 42.9163 29.2644C41.5293 28.3175 40.4305 27.0327 39.6199 25.4101C38.842 23.7534 38.453 21.9107 38.453 19.882C38.453 17.8534 38.842 15.9937 39.6199 14.4051C40.432 12.8165 41.5308 11.5644 42.9163 10.6516C44.336 9.73875 45.926 9.28162 47.6835 9.28162C49.441 9.28162 51.065 9.75436 52.4506 10.7013C53.8362 11.6482 54.9193 12.9159 55.6959 14.5045C56.5079 16.093 56.9125 17.886 56.9125 19.8806C56.9125 21.8752 56.5065 23.752 55.6959 25.4087C54.9179 27.0313 53.8362 28.3161 52.4506 29.263V29.2644Z" fill="#ECE7E1"/>
<path d="M27.9086 9.9914C28.3147 9.9914 28.6525 9.85653 28.9223 9.58538C29.1934 9.31423 29.3283 8.99339 29.3283 8.62145C29.3283 8.21543 29.1934 7.87756 28.9223 7.60641C28.6511 7.30261 28.3132 7.14929 27.9086 7.14929H22.8363V1.52185C22.8363 1.11583 22.6844 0.760925 22.3806 0.457123C22.1094 0.153321 21.7545 0 21.3159 0C20.8772 0 20.5038 0.151901 20.2 0.457123C19.9289 0.760925 19.794 1.11583 19.794 1.52185V7.15212H16.0916C15.6856 7.15212 15.3307 7.28699 15.0269 7.55814C14.7557 7.82929 14.6208 8.16716 14.6208 8.57318C14.6208 8.94512 14.7557 9.283 15.0269 9.58822C15.3307 9.85937 15.6856 9.99424 16.0916 9.99424H19.794V27.1363C19.794 28.6582 19.997 29.8251 20.403 30.6357C20.8431 31.4478 21.384 32.0227 22.0257 32.3606C22.6673 32.6644 23.2934 32.8504 23.9024 32.9185C24.5115 32.9526 24.9672 32.9696 25.2724 32.9696C26.0163 32.9696 26.6594 32.8177 27.2002 32.5139C27.7411 32.176 28.0123 31.77 28.0123 31.2973C28.0123 30.9253 27.8944 30.6215 27.6574 30.3845C27.4544 30.1474 27.2002 30.0296 26.8964 30.0296C26.6267 30.0296 26.3726 30.0807 26.1355 30.1815C25.9325 30.2496 25.6954 30.2837 25.4257 30.2837C25.0197 30.2837 24.6137 30.2155 24.2091 30.0807C23.8031 29.9117 23.4652 29.5909 23.194 29.1167C22.957 28.644 22.8391 27.9328 22.8391 26.9859V9.99566H27.9115L27.9086 9.9914Z" fill="#ECE7E1"/>
<path d="M123.268 20.122C123.268 25.5351 118.875 29.9246 113.456 29.9246C108.037 29.9246 103.643 25.5365 103.643 20.122C103.643 14.7075 108.037 10.3194 113.456 10.3194C118.875 10.3194 123.268 14.7075 123.268 20.122Z" fill="#B2C19C"/>
<path d="M244.844 50.4032C245.269 50.3224 245.984 50.2985 246.629 50.7861L246.691 50.8349L246.691 50.8351L246.729 50.8667C247.516 51.5368 247.512 52.4727 247.476 52.8704C247.433 53.3404 247.285 53.8076 247.147 54.1819C246.868 54.9388 246.41 55.8696 246.043 56.6505C245.751 57.2736 245.503 57.8294 245.33 58.3032C245.799 58.1499 246.358 57.9164 246.974 57.6204C248.634 56.8217 250.346 55.7472 251.109 55.2668L251.11 55.2663L251.299 55.1468C253.234 53.915 254.678 52.7581 255.798 51.898C256.344 51.4794 256.905 51.0581 257.398 50.7862C257.643 50.651 257.993 50.483 258.399 50.4102C258.828 50.3335 259.44 50.3472 260.011 50.7348L260.066 50.7734L260.068 50.7745L260.108 50.8047C260.946 51.4431 260.977 52.4 260.957 52.7961C260.933 53.2703 260.803 53.7484 260.678 54.1336C260.427 54.9127 260.001 55.8823 259.661 56.6988C259.358 57.4266 259.106 58.0712 258.951 58.6062C259.275 58.4974 259.658 58.3411 260.09 58.1382C261.475 57.488 262.98 56.5496 263.979 55.9247L264.179 55.7988C266.231 54.4981 267.836 53.201 269.043 52.2273C269.639 51.7468 270.214 51.2817 270.675 50.9754C270.897 50.8283 271.21 50.6365 271.561 50.5183C271.846 50.4225 272.668 50.208 273.435 50.7653L273.509 50.8217L273.51 50.8226L273.558 50.8621C274.044 51.2748 274.202 51.8101 274.24 52.1791C274.276 52.5342 274.218 52.8432 274.171 53.0371C274.074 53.4305 273.895 53.8294 273.739 54.149C273.43 54.7842 272.925 55.6603 272.546 56.3666C272.154 57.0974 271.836 57.7489 271.657 58.2775C271.894 58.2468 272.188 58.1907 272.543 58.1001C273.83 57.7719 275.509 57.1031 277.334 56.2612L277.376 56.2427C278.25 55.866 279.27 56.2535 279.671 57.123C280.078 58.0063 279.693 59.0526 278.809 59.46L278.457 59.6211C276.694 60.4215 274.918 61.1295 273.414 61.5133C272.619 61.716 271.794 61.8567 271.036 61.8255C270.31 61.7957 269.3 61.5886 268.609 60.7231L268.608 60.7224C268.13 60.1224 268 59.4384 267.997 58.8851C267.994 58.341 268.112 57.8126 268.252 57.3593C268.261 57.3295 268.271 57.2998 268.28 57.27C267.607 57.757 266.868 58.2651 266.065 58.7742L265.847 58.9115C264.877 59.518 263.195 60.572 261.587 61.3269C260.792 61.7002 259.915 62.0489 259.093 62.2103C258.391 62.3481 257.108 62.475 256.141 61.5747V61.5746C255.539 61.014 255.338 60.3007 255.288 59.7389C255.239 59.1883 255.32 58.6406 255.425 58.1744C255.577 57.5024 255.834 56.7787 256.101 56.1013C255.226 56.7538 254.188 57.492 252.985 58.2483C252.23 58.7235 250.363 59.8987 248.501 60.7947C247.58 61.2377 246.567 61.6581 245.643 61.8712C245.182 61.9775 244.655 62.0534 244.127 62.0116C243.597 61.9695 242.917 61.7941 242.363 61.252V61.2519C241.77 60.6735 241.597 59.9507 241.571 59.3931C241.546 58.8482 241.65 58.3135 241.773 57.8652C241.931 57.2861 242.175 56.669 242.432 56.0814C241.163 57.0762 239.577 58.3327 237.775 59.6581L237.278 60.0214C235.597 61.241 232.849 63.2372 230.316 64.7511C229.06 65.502 227.773 66.1857 226.65 66.5865C226.093 66.7852 225.481 66.9498 224.88 66.9784C224.295 67.0063 223.462 66.9132 222.781 66.2946V66.2944C222.075 65.6525 221.926 64.8051 221.92 64.2156C221.914 63.6209 222.047 63.016 222.2 62.4903C222.507 61.4356 223.05 60.2106 223.519 59.1428C223.932 58.2001 224.295 57.3666 224.532 56.6716C223.739 57.0154 222.852 57.5263 222.055 57.9879L222.055 57.9885C221.189 58.4897 220.697 58.87 220.188 59.2874C219.654 59.7246 219.042 60.2553 218.047 60.9335L218.046 60.9342C217.734 61.1464 216.283 62.1366 214.722 62.9368C213.952 63.3316 213.067 63.7271 212.232 63.9393C211.814 64.0454 211.328 64.1269 210.831 64.1013C210.333 64.0755 209.693 63.9327 209.143 63.4587V63.4588C208.496 62.9023 208.287 62.1643 208.231 61.6079C208.176 61.0562 208.25 60.5011 208.35 60.0256C208.361 59.9754 208.372 59.9248 208.384 59.874C207.333 60.8489 206.107 61.8887 204.7 62.8956L204.698 62.8973L204.695 62.8991C204.49 63.045 202.646 64.3509 200.624 65.4384C199.625 65.9761 198.491 66.51 197.447 66.802C196.926 66.9475 196.338 67.0591 195.751 67.038C195.161 67.0168 194.413 66.8529 193.798 66.2783L193.797 66.2778C193.162 65.6837 192.96 64.9241 192.92 64.3198C192.881 63.7289 192.983 63.1367 193.111 62.6258C193.367 61.6062 193.852 60.4612 194.275 59.4816C194.486 58.9919 194.683 58.5408 194.854 58.1288C193.963 58.6853 192.927 59.4222 191.821 60.2115C190.509 61.1474 189.09 62.1633 187.891 62.8472C187.299 63.1848 186.653 63.5053 186.031 63.6755C185.508 63.8188 184.404 64.0202 183.494 63.2455L183.493 63.2447C182.784 62.6404 182.655 61.8227 182.654 61.3068C182.653 60.7878 182.775 60.2741 182.901 59.8558C183.152 59.0197 183.593 58.0205 183.944 57.1895C184.328 56.2789 184.63 55.5106 184.765 54.9045C184.766 54.9037 184.766 54.9028 184.766 54.9019C184.44 54.963 184.004 55.0858 183.446 55.2902C181.934 55.8435 179.987 56.8141 177.711 57.9632L177.711 57.9633C174.058 59.8072 171.46 61.4239 169.507 62.5391C168.572 63.0736 167.689 63.5492 166.931 63.8118C166.285 64.0358 165.043 64.3498 163.999 63.5151L163.949 63.4745C163.317 62.9438 163.097 62.2366 163.028 61.7018C162.961 61.1721 163.016 60.6395 163.097 60.1868C163.115 60.0878 163.135 59.9875 163.157 59.8864C162.218 60.7638 161.121 61.6987 159.857 62.603L159.856 62.6032C158.294 63.7199 156.214 64.9766 154.309 65.7976C153.366 66.204 152.373 66.5445 151.459 66.673C150.641 66.788 149.352 66.8074 148.409 65.8819L148.409 65.8815C147.812 65.2951 147.606 64.5638 147.555 63.9639C147.505 63.3758 147.591 62.7857 147.709 62.2709C147.942 61.2458 148.399 60.1097 148.802 59.142C148.897 58.9133 148.989 58.694 149.077 58.484C148.22 58.9796 147.149 59.5693 145.837 60.1887L145.837 60.1885C144.53 60.8063 143.242 61.4178 142.187 61.7712C141.66 61.9476 141.071 62.1026 140.493 62.1259C139.916 62.1492 139.098 62.0475 138.435 61.4202L138.435 61.4199C137.815 60.8339 137.648 60.0883 137.626 59.5347C137.604 58.9899 137.712 58.4526 137.837 58.0018C138.014 57.3636 138.292 56.6751 138.58 56.0262C137.616 56.7562 136.459 57.6381 135.029 58.6912L135.029 58.6913C131.181 61.5245 128.942 62.9402 127.586 63.6184C126.923 63.9499 126.338 64.1753 125.803 64.2448C125.515 64.2822 125.19 64.2816 124.854 64.1925C124.495 64.0974 124.239 63.9321 124.075 63.8038L124.074 63.8027L124.072 63.8016C123.336 63.2208 123.169 62.3965 123.138 61.8833C123.106 61.3492 123.195 60.805 123.302 60.341C123.345 60.1556 123.396 59.9647 123.452 59.7705C122.211 60.9214 120.715 62.1734 118.942 63.3655L118.942 63.3657C118.509 63.6573 116.737 64.8345 114.858 65.7654C113.929 66.2252 112.881 66.6725 111.909 66.8977C111.422 67.0102 110.869 67.0881 110.315 67.0405C109.753 66.9923 109.068 66.8023 108.506 66.2611L108.505 66.2609C107.87 65.6503 107.68 64.8754 107.646 64.268C107.613 63.6684 107.718 63.0637 107.853 62.5351C108.122 61.4782 108.625 60.2937 109.074 59.2708C109.172 59.0484 109.267 58.8336 109.359 58.6264C108.713 59.0419 107.948 59.5305 107.047 60.0856L107.047 60.0855C105.015 61.3379 103.388 62.338 102.179 62.9439C101.581 63.2434 100.97 63.5071 100.395 63.6345C99.8609 63.7527 98.9331 63.8463 98.1286 63.2171L98.0599 63.1613C97.3677 62.5786 97.2079 61.7828 97.1972 61.2396C97.1864 60.6921 97.3134 60.15 97.4458 59.7094C97.7115 58.8257 98.1868 57.7755 98.5739 56.8879C98.9949 55.9222 99.3398 55.09 99.5069 54.4187C99.5289 54.3302 99.5457 54.2514 99.5588 54.1817C99.5292 54.184 99.4976 54.1867 99.464 54.1901C98.8708 54.2512 98.02 54.4774 96.9194 54.8832C94.7354 55.6884 92.0026 57.0319 89.1811 58.447C86.4129 59.8352 83.551 61.2969 81.257 62.2345C80.119 62.6996 79.0096 63.0833 78.06 63.245C77.5866 63.3256 77.0512 63.3698 76.5242 63.2863C75.9832 63.2006 75.3201 62.9552 74.8301 62.345L74.8299 62.3447C74.3376 61.7315 74.2493 61.036 74.2887 60.5034C74.3263 59.9965 74.4841 59.5251 74.6359 59.1538C74.9313 58.4311 75.4218 57.5944 75.7776 56.9498C76.1803 56.22 76.4773 55.6269 76.6195 55.1368C76.6907 54.8912 76.6981 54.7578 76.6951 54.6973C76.6238 54.6492 76.3683 54.5058 75.6794 54.4481C74.8251 54.3765 73.714 54.4762 72.5164 54.6845C70.4386 55.0459 68.415 55.676 67.6705 55.9199L67.4332 55.9988L67.4323 55.9991C62.9108 57.5306 59.4642 59.7569 56.9193 61.5203C55.6954 62.3684 54.5463 63.2074 53.6632 63.7218C53.2212 63.9792 52.6969 64.2474 52.1521 64.3759C51.5832 64.5101 50.7161 64.5473 49.9564 63.9344V63.9342C49.2257 63.3447 49.0574 62.522 49.0336 61.9817C49.0094 61.4345 49.1141 60.8819 49.2342 60.416C49.4761 59.4772 49.9201 58.3879 50.3041 57.4494C50.4537 57.084 50.595 56.7387 50.7237 56.4152C50.6868 56.4408 50.6494 56.4668 50.6115 56.4934C49.1023 57.5509 47.2226 59.1083 45.2582 60.7352C43.3341 62.3287 41.3255 63.9915 39.6639 65.1465C38.8423 65.7174 38.0134 66.2303 37.2649 66.5403C36.8928 66.6944 36.4455 66.8393 35.9706 66.8738C35.4865 66.9091 34.8162 66.8367 34.2267 66.3632L34.2264 66.3629C33.45 65.739 33.3328 64.8554 33.3359 64.3389C33.3392 63.8021 33.4675 63.2588 33.6023 62.8051C33.8727 61.8948 34.347 60.7902 34.7322 59.8467C35.1494 58.8253 35.4869 57.9388 35.6372 57.2364C35.6539 57.1583 35.6667 57.0877 35.677 57.0242C35.3499 57.0803 34.9061 57.2058 34.3383 57.4219C32.9275 57.9587 31.1845 58.8805 29.3456 59.886C27.5667 60.8586 25.6807 61.9198 24.1514 62.6038C23.394 62.9425 22.6051 63.2445 21.8886 63.3769C21.3125 63.4835 20.0448 63.6213 19.1649 62.6332L19.1646 62.6328C18.5795 61.9753 18.5247 61.1972 18.584 60.6704C18.6414 60.1598 18.8223 59.6804 18.9915 59.3031C19.3281 58.5526 19.8683 57.6837 20.2929 56.9733C20.7622 56.1882 21.1367 55.5252 21.3422 54.9758C21.3779 54.8804 21.4035 54.8003 21.4225 54.7342C21.3585 54.7226 21.281 54.7114 21.1877 54.702C20.5479 54.6377 19.4969 54.7007 17.8883 55.022C14.6925 55.6605 9.74422 57.2232 2.40938 60.124C1.50486 60.4817 0.481611 60.0384 0.12389 59.1339C-0.233833 58.2293 0.209503 57.2061 1.11404 56.8484C8.50033 53.9272 13.6849 52.2697 17.1981 51.5678C18.9438 51.219 20.3914 51.0818 21.5397 51.1971C22.652 51.3088 23.8799 51.7062 24.5605 52.8327H24.5606L24.5945 52.8902C25.2883 54.098 24.9372 55.4194 24.6415 56.2099C24.3079 57.1018 23.768 58.0251 23.3165 58.7805C23.2213 58.9398 23.13 59.0916 23.0432 59.2365C24.3484 58.6253 25.9364 57.7352 27.6556 56.7953C29.4624 55.8074 31.413 54.766 33.0858 54.1296C33.9169 53.8133 34.7901 53.5528 35.6081 53.4844C36.3969 53.4184 37.4823 53.5064 38.3182 54.3149H38.3183L38.3734 54.3695C38.9313 54.9393 39.1475 55.6375 39.2102 56.2367C39.2733 56.839 39.195 57.4439 39.0817 57.9735C38.8565 59.0259 38.3976 60.1886 37.9933 61.1786C37.8213 61.5996 37.6593 61.9898 37.5135 62.3503C37.5594 62.3189 37.6062 62.2869 37.6536 62.254C39.1667 61.2024 41.0485 59.648 43.0115 58.0223C44.9342 56.43 46.9382 54.766 48.5902 53.6085C49.4071 53.0362 50.2294 52.5215 50.9693 52.2082C51.3364 52.0527 51.7798 51.9045 52.2511 51.8655C52.7149 51.8272 53.3674 51.8858 53.9505 52.328L54.0068 52.372L54.0077 52.3729L54.0775 52.4316C54.7797 53.0461 54.8875 53.8824 54.8894 54.3629C54.8915 54.8894 54.7741 55.4236 54.6475 55.8731C54.392 56.7804 53.9438 57.8557 53.5642 58.7834C53.4067 59.1683 53.2592 59.5317 53.1278 59.8708C53.6296 59.524 54.2149 59.1088 54.9131 58.625C57.5072 56.8276 61.197 54.4286 66.0694 52.7426L66.3022 52.6628C66.7554 52.509 69.265 51.6747 71.9127 51.2142C73.2271 50.9855 74.6803 50.8295 75.9736 50.9379C77.1513 51.0366 78.7262 51.3992 79.6246 52.7224L79.6669 52.7861L79.667 52.7864L79.7016 52.8407C80.4132 53.9858 80.2603 55.2298 80.0026 56.1181C79.7382 57.0297 79.2573 57.9348 78.8615 58.6519C78.6756 58.9888 78.5099 59.2829 78.3658 59.5457C78.8053 59.4087 79.3251 59.2187 79.9242 58.9738C82.059 58.1013 84.764 56.7215 87.6018 55.2983C90.3863 53.9019 93.2989 52.4638 95.701 51.5782C96.8933 51.1387 98.0706 50.7923 99.1035 50.6861C100.022 50.5915 101.389 50.6298 102.327 51.6472L102.372 51.6964L102.372 51.6966L102.421 51.7533C102.912 52.3411 103.08 53.0234 103.114 53.6001C103.147 54.1835 103.051 54.7627 102.925 55.2694C102.675 56.2736 102.206 57.3719 101.803 58.2958C101.626 58.7012 101.462 59.0733 101.317 59.4143C102.287 58.8773 103.551 58.1029 105.199 57.0868H105.199L105.556 56.8661C106.37 56.36 107.065 55.9143 107.663 55.5291C108.336 55.0957 108.916 54.7194 109.389 54.4339C109.837 54.1639 110.326 53.8896 110.796 53.7355C111.247 53.5873 112.108 53.4157 112.913 53.9713L112.991 54.0273L112.991 54.0275L113.031 54.0589C113.871 54.7202 113.913 55.6922 113.887 56.1505C113.858 56.6764 113.707 57.2146 113.555 57.6669C113.247 58.5816 112.73 59.7068 112.3 60.6868C111.838 61.7394 111.453 62.6697 111.266 63.4043C111.264 63.4126 111.262 63.421 111.26 63.4291C111.817 63.2808 112.522 62.9916 113.294 62.6089C114.956 61.7859 116.569 60.7165 116.976 60.4431L116.976 60.4428L117.225 60.2733C119.781 58.5173 121.704 56.6217 123.108 55.1581C123.799 54.4379 124.456 53.7242 124.943 53.2649C125.182 53.0398 125.493 52.765 125.834 52.5681C126.064 52.436 126.984 51.9433 127.957 52.5131L128.003 52.541L128.005 52.5421L128.059 52.5768C128.606 52.9414 128.822 53.4724 128.901 53.8274C128.978 54.1772 128.96 54.4973 128.936 54.7084C128.887 55.1383 128.753 55.5952 128.623 55.9837C128.358 56.774 127.931 57.7931 127.577 58.6838C127.415 59.0911 127.266 59.4791 127.135 59.8404C128.342 59.1165 130.173 57.8922 132.941 55.8546C135.242 54.1601 137.131 52.6786 138.378 51.7907C139.01 51.3413 139.621 50.9366 140.161 50.6857C140.428 50.5615 140.789 50.4207 141.197 50.3765C141.617 50.3308 142.219 50.3792 142.761 50.7923L142.814 50.8334L142.853 50.8659C143.659 51.5513 143.629 52.5171 143.592 52.8922C143.545 53.3591 143.396 53.8277 143.255 54.208C142.969 54.9781 142.505 55.928 142.13 56.7332C141.86 57.3118 141.625 57.8364 141.45 58.2933C142.207 58.005 143.157 57.5591 144.332 57.0037L144.333 57.0034L144.517 56.9156C146.407 56.0115 147.71 55.2 148.7 54.6167C149.174 54.3374 149.698 54.0357 150.175 53.8586C150.605 53.6994 151.603 53.412 152.524 54.0902H152.524C153.369 54.7115 153.467 55.6464 153.457 56.1352C153.447 56.6574 153.314 57.186 153.18 57.6211C152.908 58.4991 152.438 59.575 152.054 60.4963C151.638 61.4936 151.3 62.364 151.143 63.0522C151.135 63.0897 151.127 63.1254 151.12 63.1594C151.574 63.0747 152.183 62.8782 152.915 62.5626C154.43 61.91 156.158 60.8887 157.538 59.9283L157.809 59.7372C160.005 58.1664 161.652 56.4761 162.872 55.1756C163.452 54.5579 164.017 53.9373 164.461 53.5273C164.676 53.3282 164.977 53.0695 165.324 52.8861C165.62 52.73 166.481 52.3558 167.383 52.8962L167.433 52.9271C167.941 53.2516 168.18 53.7253 168.282 54.0857C168.38 54.4324 168.377 54.7509 168.362 54.9615C168.333 55.3842 168.216 55.8227 168.108 56.1776C167.889 56.8958 167.519 57.8371 167.23 58.6249C167.041 59.1402 166.877 59.6151 166.753 60.0355C167.038 59.8862 167.371 59.7027 167.76 59.4806C169.596 58.432 172.362 56.7171 176.123 54.8187L176.951 54.4016C178.871 53.4366 180.707 52.5414 182.235 51.9822C183.104 51.6644 183.991 51.4092 184.808 51.3467C185.573 51.2882 186.616 51.3765 187.427 52.1355L187.504 52.2111L187.505 52.2112L187.555 52.2633C188.592 53.3644 188.383 54.8641 188.204 55.6708C187.989 56.6334 187.559 57.6834 187.19 58.5584C187.069 58.8433 186.956 59.1103 186.85 59.3606C187.716 58.8119 188.712 58.1024 189.775 57.3441C191.087 56.4075 192.509 55.3915 193.714 54.7076C194.309 54.3699 194.959 54.0503 195.584 53.8811C196.108 53.7394 197.175 53.5515 198.073 54.2702L198.116 54.305L198.116 54.3052L198.185 54.365C198.877 54.9908 198.987 55.8257 198.981 56.3382C198.974 56.8832 198.84 57.4329 198.698 57.8942C198.413 58.8216 197.919 59.9277 197.509 60.8779C197.085 61.8597 196.733 62.712 196.551 63.3941C197.214 63.2014 198.057 62.8193 198.956 62.3362C200.777 61.3565 202.475 60.1553 202.655 60.0277C205.102 58.2755 206.964 56.3973 208.325 54.9618C208.977 54.2748 209.592 53.6036 210.058 53.1642C210.284 52.9508 210.582 52.6871 210.91 52.4963C211.108 52.3813 212.042 51.8599 213.025 52.448L213.072 52.4769L213.072 52.4772L213.128 52.5136C213.69 52.8969 213.89 53.4544 213.955 53.8057C214.019 54.1531 213.989 54.4662 213.959 54.6655C213.899 55.0741 213.758 55.5077 213.626 55.8722C213.362 56.6029 212.928 57.5932 212.59 58.424C212.295 59.1478 212.049 59.8054 211.896 60.3539C212.256 60.2186 212.67 60.0308 213.115 59.8024C214.463 59.1111 215.757 58.2311 216.064 58.0225C216.9 57.4524 217.374 57.0391 217.955 56.563C218.56 56.067 219.211 55.5646 220.29 54.94C221.085 54.479 222.233 53.8111 223.311 53.363C223.847 53.1405 224.466 52.9287 225.08 52.8495C225.634 52.7781 226.521 52.7723 227.285 53.3516L227.359 53.4095L227.36 53.4104L227.429 53.4688C228.125 54.0802 228.295 54.9015 228.313 55.4871C228.33 56.0868 228.201 56.6954 228.052 57.2175C227.753 58.2672 227.213 59.4904 226.744 60.5587C226.301 61.567 225.913 62.4568 225.67 63.192C226.437 62.8932 227.412 62.3835 228.509 61.7276C230.884 60.308 233.505 58.407 235.208 57.1708L235.7 56.8114C238.123 55.0299 240.009 53.48 241.554 52.3039C242.336 51.7092 243.076 51.1753 243.705 50.8358C244.013 50.6695 244.41 50.4856 244.844 50.4032ZM165.571 55.9172C165.572 55.9174 165.572 55.9175 165.572 55.9177L165.572 55.9174L165.571 55.9172Z" fill="#B2C19C"/>
</svg>
